<svg xmlns="http://www.w3.org/2000/svg" fill="none" viewBox="0 0 24 24">
  <g fill="#fff" fill-rule="evenodd" clip-path="url(#a)" clip-rule="evenodd">
    <path d="M11.88 9.53a1.1 1.1 0 1 0 0-2.19 1.1 1.1 0 0 0 0 2.2Zm0 1.35a2.44 2.44 0 1 0 0-4.88 2.44 2.44 0 0 0 0 4.88ZM13.21 13.35a15.86 15.86 0 0 1-2.46 0h-.13c-.46-.04-.86-.07-1.21-.05a1.7 1.7 0 0 0-.73.16c-.11.06-.2.15-.26.38a1.56 1.56 0 0 0 .01.7c.1.74.6 1.35 1.39 1.73.8.38 1.46.58 2.51.34.38-.09.75.12.85.47.09.34-.14.7-.51.78a4.89 4.89 0 0 1-3.5-.45 3.55 3.55 0 0 1-2.12-2.73l-.01-.1c-.04-.3-.07-.58.02-1 .12-.55.43-.96.9-1.22.42-.24.92-.32 1.37-.34.46-.03.95 0 1.4.04h.13c.41.04.78.07 1.12.06.35 0 .72-.03 1.11-.06l.19-.01c.45-.03.93-.07 1.39-.04.45.02.94.1 1.37.35.45.26.76.67.88 1.22.09.4.1.65.05 1.07-.1.9-.46 1.17-.93 1.62a.74.74 0 0 1-.99.01.61.61 0 0 1-.01-.9c.03-.04.5-.42.55-.87.03-.28.02-.4-.04-.67-.05-.23-.15-.33-.25-.39a1.62 1.62 0 0 0-.71-.16c-.35-.01-.75 0-1.2.04l-.18.02Z"/>
    <path d="M15.2 1.66H8.8A7.33 7.33 0 0 0 1.6 9.1v5.8a7.33 7.33 0 0 0 7.2 7.44h6.4c3.98 0 7.2-3.33 7.2-7.44V9.1a7.33 7.33 0 0 0-7.2-7.44ZM8.8 0C3.94 0 0 4.08 0 9.1v5.8C0 19.92 3.94 24 8.8 24h6.4c4.86 0 8.8-4.08 8.8-9.1V9.1C24 4.08 20.06 0 15.2 0H8.8Z"/>
  </g>
  <defs>
    <clipPath id="a">
      <path fill="#fff" d="M0 0h24v24H0z"/>
    </clipPath>
  </defs>
</svg>
