<svg xmlns="http://www.w3.org/2000/svg" fill="none" viewBox="0 0 24 24">
  <path fill="#fff" d="m14.72 14-.5.08a.5.5 0 0 1 .5-.58v.5Zm-11 0v.5a.5.5 0 0 1-.5-.5h.5Zm2-10.5h11.36v1H5.72v-1Zm12.56 11h-3.56v-1h3.56v1Zm-3.07-.58.8 4.83-.98.17-.8-4.84.98-.16Zm-.67 6.58h-.21v-1h.21v1Zm-3.13-1.56L8.9 15.17l.83-.56 2.52 3.78-.84.55ZM7.65 14.5H3.72v-1h3.93v1ZM3.22 14V6h1v8h-1Zm16.31-8.49 1.2 6-.98.2-1.2-6 .98-.2ZM8.9 15.17a1.5 1.5 0 0 0-1.25-.67v-1a2.5 2.5 0 0 1 2.08 1.11l-.83.56Zm7.12 3.58a1.5 1.5 0 0 1-1.48 1.75v-1a.5.5 0 0 0 .48-.37.5.5 0 0 0 .01-.21l.99-.17Zm2.26-5.25a1.5 1.5 0 0 0 1.47-1.8l.98-.19a2.5 2.5 0 0 1-2.45 2.99v-1Zm-1.2-10a2.5 2.5 0 0 1 2.45 2.01l-.98.2a1.5 1.5 0 0 0-1.47-1.21v-1Zm-2.75 17a3.5 3.5 0 0 1-2.92-1.56l.84-.55a2.5 2.5 0 0 0 2.08 1.11v1Zm-8.61-16A1.5 1.5 0 0 0 4.22 6h-1a2.5 2.5 0 0 1 2.5-2.5v1Z"/>
  <path stroke="#fff" d="M7.72 14V4"/>
</svg>
