<svg xmlns="http://www.w3.org/2000/svg" fill="none" viewBox="0 0 24 24">
  <path fill="#fff" d="m14.72 9.91-.5-.08a.54.54 0 0 0 .12.42.5.5 0 0 0 .38.18v-.52Zm-11 0V9.4a.49.49 0 0 0-.35.15c-.1.1-.15.23-.15.37h.5Zm2 10.96h11.36v-1.04H5.72v1.04ZM18.28 9.39h-3.56v1.04h3.56V9.4Zm-3.07.6.8-5.04-.98-.17-.8 5.05.98.17Zm-.67-6.86h-.21v1.04h.21V3.13Zm-3.13 1.63L8.9 8.69l.83.58 2.52-3.94-.84-.57ZM7.65 9.39H3.72v1.04h3.93V9.4Zm-4.43.52v8.35h1V9.91h-1Zm16.31 8.86 1.2-6.26-.98-.2-1.2 6.26.98.2ZM8.9 8.7a1.45 1.45 0 0 1-1.25.7v1.04c.41 0 .82-.1 1.18-.3.36-.2.67-.5.9-.86L8.9 8.7Zm7.12-3.74a1.63 1.63 0 0 0-.34-1.27 1.5 1.5 0 0 0-1.14-.55v1.04a.5.5 0 0 1 .38.18.53.53 0 0 1 .11.43l.99.17Zm2.26 5.48a1.45 1.45 0 0 1 1.16.58 1.6 1.6 0 0 1 .31 1.3l.98.2a2.72 2.72 0 0 0-.52-2.16 2.52 2.52 0 0 0-1.93-.96v1.04Zm-1.2 10.44c.58 0 1.14-.21 1.59-.6.44-.37.75-.9.86-1.5l-.98-.2c-.07.35-.25.67-.52.9-.27.23-.6.36-.95.36v1.04ZM14.33 3.13c-.58 0-1.15.15-1.66.43-.5.29-.94.7-1.26 1.2l.83.57c.23-.35.54-.65.9-.85.37-.2.77-.3 1.18-.3V3.12Zm-8.61 16.7c-.4 0-.78-.17-1.06-.46a1.6 1.6 0 0 1-.44-1.11h-1c0 .7.26 1.36.73 1.85.47.48 1.1.76 1.77.76v-1.04Z"/>
  <path fill="#fff" d="M14.23 9.83a.54.54 0 0 0 .1.42.5.5 0 0 0 .39.18h3.56a1.45 1.45 0 0 1 1.16.58 1.6 1.6 0 0 1 .31 1.3l-1.2 6.26c-.07.35-.25.67-.52.9-.27.23-.6.36-.95.36v1.04c.58 0 1.14-.21 1.59-.6.44-.37.75-.9.86-1.5l1.2-6.26a2.72 2.72 0 0 0-.52-2.16 2.52 2.52 0 0 0-1.93-.96h-2.97l.7-4.44a1.63 1.63 0 0 0-.33-1.27 1.5 1.5 0 0 0-1.14-.55h-.21v1.04h.21a.5.5 0 0 1 .38.18.53.53 0 0 1 .11.43l-.8 5.05Z"/>
  <path fill="#fff" d="M11.41 4.76 8.9 8.69l.83.58 2.52-3.94c.22-.35.53-.65.9-.85.36-.2.76-.3 1.17-.3V3.12c-.57 0-1.14.15-1.65.43-.5.29-.94.7-1.26 1.2Z"/>
  <path stroke="#fff" d="M7.72 9.91v10.44"/>
</svg>
