<svg xmlns="http://www.w3.org/2000/svg" fill="none" viewBox="0 0 24 24">
  <path fill="#fff" fill-rule="evenodd" d="M18.4 4.2c.4.48.68 1.2.68 2.03V18.3a.94.94 0 1 0 1.9 0V6.23c0-1.26-.43-2.4-1.1-3.22a3.52 3.52 0 0 0-2.69-1.4h-5.66a.94.94 0 0 0 0 1.89h5.66c.36 0 .82.2 1.22.7Zm-.73 17.24a.94.94 0 0 0-.95-.94h-5.19a.94.94 0 0 0 0 1.89h5.2c.51 0 .94-.42.94-.95ZM9.49 7.51a.94.94 0 0 0-.09 1.33l1.93 2.21H3.97a.94.94 0 0 0 0 1.89h7.37L9.4 15.16a.94.94 0 0 0 1.42 1.24l3.3-3.78a.94.94 0 0 0-.05-1.3L10.83 7.6a.94.94 0 0 0-1.33-.09Z" clip-rule="evenodd"/>
</svg>
