<svg xmlns="http://www.w3.org/2000/svg" fill="none" viewBox="0 0 90 35">
  <path fill="#fff" d="M38.64 26.27a.84.84 0 0 1-.46.48c-.23.08-.47.07-.73-.02l-7.47-5.34a.98.98 0 0 1-.56-.46.82.82 0 0 1-.01-.67c.13-.33.42-.55.86-.64l6.44-1.26-3.92-5.21c-.26-.37-.33-.72-.2-1.05a.8.8 0 0 1 .46-.48.99.99 0 0 1 .73.02l8.73 1.57c.25.1.43.25.55.46.1.21.11.43.02.67a.84.84 0 0 1-.47.49c-.23.08-.47.07-.73-.03l-7.02-1.38L38.24 18c.3.41.39.77.27 1.08-.13.3-.44.5-.93.6l-5.6 1.1 6.1 4.34c.25.1.43.25.55.47.1.2.1.43.01.67ZM49.2 24.1a4.8 4.8 0 0 1-4.37-2.38 5.17 5.17 0 0 1-.64-2.59c0-.98.21-1.84.63-2.58a4.62 4.62 0 0 1 1.78-1.75 5.12 5.12 0 0 1 2.6-.65c.96 0 1.82.22 2.57.65.75.42 1.34 1 1.76 1.75a5 5 0 0 1 .65 2.58c0 .97-.21 1.83-.63 2.58-.43.74-1.01 1.33-1.76 1.76-.75.42-1.62.63-2.6.63Zm0-1.62a3.2 3.2 0 0 0 1.66-.43c.49-.28.86-.68 1.13-1.18.28-.5.41-1.08.41-1.74 0-.65-.13-1.23-.41-1.73a2.93 2.93 0 0 0-1.13-1.2 3.2 3.2 0 0 0-1.67-.43 3.06 3.06 0 0 0-2.81 1.63c-.27.5-.41 1.08-.41 1.73 0 .66.14 1.24.41 1.74a3.09 3.09 0 0 0 2.81 1.61ZM60.65 14.24c.18 0 .35.05.5.15.14.1.25.24.34.44l3.73 8.01c.11.24.12.46.04.65a.86.86 0 0 1-.44.4c-.26.13-.5.16-.69.1-.2-.06-.35-.21-.49-.45l-3.4-7.65h.92l-3.52 7.65a.82.82 0 0 1-.49.45.97.97 0 0 1-.69-.1c-.23-.1-.39-.24-.49-.42-.08-.18-.06-.39.06-.63l3.75-8c.18-.4.47-.6.87-.6ZM68.5 24.02a.95.95 0 0 1-.67-.25.93.93 0 0 1-.25-.66v-7.99a1 1 0 0 1 .29-.64.87.87 0 0 1 .63-.26c.28 0 .5.09.67.26.17.16.26.38.26.66v3.08h3.51v.36c.67 0 1.26.11 1.76.34.52.23.93.54 1.22.95.29.4.43.85.43 1.38 0 .54-.14 1.01-.43 1.43-.3.42-.7.75-1.22.99-.5.23-1.1.35-1.76.35H68.5Zm.93-1.7h3.51c.49 0 .88-.11 1.18-.34a1.2 1.2 0 0 0 0-1.88c-.3-.25-.7-.38-1.18-.38h-3.51v2.6Zm2.08-3.13v-.97h1.72c.3 0 .55-.11.75-.34.2-.24.29-.54.29-.9a.98.98 0 0 0-.35-.77c-.23-.2-.52-.3-.87-.3h-4.53v-1.69h4.53c.57 0 1.07.12 1.5.35.45.21.8.51 1.06.9.25.4.38.83.38 1.33 0 .7-.27 1.27-.8 1.72-.52.45-1.17.67-1.96.67h-1.72ZM82.76 24.1a4.45 4.45 0 0 1-4.04-2.42c-.4-.75-.6-1.6-.6-2.55a4.89 4.89 0 0 1 5-4.98 4.9 4.9 0 0 1 4.99 4.98h-.7c0 .95-.21 1.8-.62 2.55a4.45 4.45 0 0 1-4.03 2.42Zm.36-1.62c.62 0 1.17-.14 1.65-.43.49-.3.87-.7 1.15-1.2.27-.51.41-1.08.41-1.72 0-.64-.14-1.21-.41-1.72a3.08 3.08 0 0 0-2.8-1.65 3.14 3.14 0 0 0-2.8 1.65c-.29.5-.42 1.08-.42 1.72 0 .64.13 1.21.41 1.72.3.5.68.9 1.16 1.2.5.29 1.05.43 1.65.43Zm4.07 1.56a.95.95 0 0 1-.68-.25.93.93 0 0 1-.25-.66v-2.74l.34-1.9 1.51.64v4a.9.9 0 0 1-.92.91ZM5.62 34.86a.7.7 0 0 1-.17-.95l.6-.89c1.47-2.18 3.44-5.12 6.68-6.7a.7.7 0 0 0 .4-.63v-1.56a.7.7 0 0 0-.7-.7c-.87 0-1.78.04-2.68.09-2.54.14-5.17.29-7.07-.8l-.08-.04C1.08 21.53.22 20.17.04 18.62c-.4-3.32 2.47-6.8 4.79-9.6.65-.8 1.28-1.55 1.76-2.22l.03-.03 1.2-1.49C9.73 2.83 11.91.06 15.78.15l.14-.01c2.65-.66 5.73 1.17 7.6 2.97 1.51 1.47 2.97 3.64 2.5 5.37-.13.49-.45 1.09-1.25 1.5a.68.68 0 0 0-.35.57c-.03.85.03 1.77.1 2.74.14 2.32.3 4.71-.82 6.34l-.06.08c-.61.67-1.27 1.23-1.92 1.77-1.5 1.26-2.65 2.22-2.56 4.04.02.3.23.57.52.65 3.55 1.05 4.52 2.38 6.55 5.67a.7.7 0 0 1-1.2.73c-2.09-3.38-2.81-4.3-6.4-5.24a.88.88 0 0 0-.2-.02h-4.33c-.1 0-.2.02-.29.05-3.19 1.35-5.08 4.17-6.61 6.45l-.6.89a.7.7 0 0 1-1 .16Zm8.92-8.96h3.27c-.29-2.72 1.4-4.12 3.03-5.5.6-.5 1.2-1 1.75-1.6.8-1.23.67-3.36.54-5.43-.06-1.01-.13-2.06-.09-3.02a13.25 13.25 0 0 1-3.62-.24l-.59-.19a4.2 4.2 0 0 0-.4-.13v.05c-.07.2-.11.42-.16.63l-.06.31c-.15.74-.4 1.56-.68 2.17-.33.72-.62 1.07-1 1.21-.78.23-1.24-.4-1.46-.7a8.34 8.34 0 0 1-.12-.16 2.83 2.83 0 0 0-.9-.86c-.3-.13-1.34-.53-2.08.29a3.02 3.02 0 0 0-.73 2.62c.15.67.73 1.25 1.48 1.5.12.05.2.08.3.1.32.12.74.27 1.06.62.44.56.45 1.18.46 1.68v1.32l.02 2.22v3.1l-.02.01ZM3.42 21.54c1.54.85 3.94.71 6.26.59 1.15-.07 2.34-.13 3.45-.08l-.01-2.77c0-.35-.02-.65-.14-.8-.04-.06-.24-.12-.44-.2a4.4 4.4 0 0 1-.32-.11 3.56 3.56 0 0 1-2.37-2.5c-.31-1.3.09-2.79 1.06-3.87.91-1.01 2.38-1.25 3.73-.62.49.24.95.64 1.4 1.25l.1.14.09-.18a9.8 9.8 0 0 0 .59-1.9l.06-.29c.05-.27.1-.52.18-.76.2-.75.78-1.17 1.46-1.05.22.02.48.12.76.21a4.91 4.91 0 0 0 1.04.27c1.07.17 2.2.12 3.37.03.83-.23.94-.65.98-.79.25-.9-.63-2.55-2.13-4-1.77-1.71-4.43-3.17-6.4-2.58l-.11.04h-.12c-3.27-.17-5.08 2.14-7 4.58l-1.2 1.5c-.48.67-1.12 1.44-1.8 2.26-2.14 2.59-4.8 5.82-4.47 8.55.13 1.15.78 2.15 1.98 3.07Z"/>
</svg>
