<svg xmlns="http://www.w3.org/2000/svg" fill="none" viewBox="0 0 24 25">
  <path fill="#fff" d="m11 12-1.88 1.87c-.2.2-.43.3-.7.3a1.02 1.02 0 0 1-1-1.02c-.02-.27.08-.5.28-.7l3.6-3.6c.1-.1.2-.17.32-.21a1.13 1.13 0 0 1 .76 0 .9.9 0 0 1 .32.21l3.6 3.6c.2.2.3.43.29.7a1.02 1.02 0 0 1-1 1.01.93.93 0 0 1-.71-.29L13 12v7.15c0 .28-.1.52-.29.71-.19.2-.43.3-.71.29a.97.97 0 0 1-.71-.29.97.97 0 0 1-.29-.71V12ZM4 8.15v-2c0-.55.2-1.02.59-1.41.39-.4.86-.59 1.41-.59h12c.55 0 1.02.2 1.41.59.4.39.6.86.59 1.41v2c0 .28-.1.52-.29.71-.19.2-.43.3-.71.29a.97.97 0 0 1-.71-.29.97.97 0 0 1-.29-.71v-2H6v2c0 .28-.1.52-.29.71-.19.2-.43.3-.71.29a.97.97 0 0 1-.71-.29.97.97 0 0 1-.29-.71Z"/>
</svg>
