<svg xmlns="http://www.w3.org/2000/svg" fill="none" viewBox="0 0 24 24">
  <path fill="#fff" fill-rule="evenodd" d="M4.44 21.44a.94.94 0 0 1-.94-.94V5.62l-.16.2-.04.05c-.18.23-.38.49-.54.65A.94.94 0 1 1 1.41 5.2c.07-.07.2-.23.4-.5l.05-.05.61-.76c.23-.28.5-.57.78-.8.14-.12.3-.25.48-.34.17-.1.42-.2.71-.2.3 0 .55.1.72.2.18.1.34.22.48.33.27.24.54.53.78.81l.61.76.05.06.4.5a.94.94 0 0 1-1.35 1.3c-.16-.15-.36-.4-.54-.63a147.92 147.92 0 0 1-.2-.26V20.5c0 .52-.42.94-.95.94ZM11.53 5.86c0-.52.42-.94.94-.94h9.45a.94.94 0 1 1 0 1.89h-9.45a.94.94 0 0 1-.94-.95Zm0 4.1c0-.53.42-.95.94-.95h7.56a.94.94 0 1 1 0 1.89h-7.56a.94.94 0 0 1-.94-.95Zm0 4.09c0-.53.42-.95.94-.95h4.72a.94.94 0 1 1 0 1.9h-4.72a.94.94 0 0 1-.94-.95Zm0 4.09c0-.52.42-.95.94-.95h2.84a.94.94 0 1 1 0 1.9h-2.84a.94.94 0 0 1-.94-.95Z" clip-rule="evenodd"/>
</svg>
