<svg xmlns="http://www.w3.org/2000/svg" fill="none" viewBox="0 0 24 24">
  <path fill="#fff" fill-rule="evenodd" d="M4.44 2.56c.53 0 .95.42.95.94v14.88a88.75 88.75 0 0 0 .2-.25c.18-.23.38-.49.54-.65a.94.94 0 0 1 1.35 1.32c-.07.07-.2.23-.4.5l-.05.05-.61.76c-.24.28-.5.57-.78.8-.14.12-.3.25-.48.34-.17.1-.42.2-.72.2s-.54-.1-.71-.2c-.18-.1-.34-.22-.48-.33a7.18 7.18 0 0 1-.78-.81 26.1 26.1 0 0 1-.61-.76l-.05-.06-.4-.5a.94.94 0 1 1 1.35-1.3c.16.15.36.4.54.63l.04.06.16.2V3.5c0-.52.42-.94.94-.94ZM11.53 18.14c0 .52.42.94.94.94h9.45a.94.94 0 1 0 0-1.89h-9.45a.94.94 0 0 0-.94.95Zm0-4.1c0 .53.42.95.94.95h7.56a.94.94 0 1 0 0-1.89h-7.56a.94.94 0 0 0-.94.95Zm0-4.09c0 .53.42.95.94.95h4.72a.94.94 0 1 0 0-1.9h-4.72a.94.94 0 0 0-.94.95Zm0-4.09c0 .52.42.95.94.95h2.84a.94.94 0 1 0 0-1.9h-2.84a.94.94 0 0 0-.94.95Z" clip-rule="evenodd"/>
</svg>
