<svg xmlns="http://www.w3.org/2000/svg" fill="none" viewBox="0 0 24 24">
  <path stroke="#fff" stroke-width="2" d="M9.58 6.4C10.66 4.47 11.2 3.5 12 3.5c.8 0 1.34.97 2.42 2.9l.28.5c.3.55.46.82.7 1 .23.18.53.25 1.13.38l.54.13c2.09.47 3.13.7 3.38 1.5s-.46 1.64-1.89 3.3l-.37.44c-.4.47-.6.7-.7 1-.09.3-.06.6 0 1.24l.06.58c.22 2.22.32 3.33-.33 3.83-.65.49-1.63.04-3.58-.86l-.51-.23c-.56-.26-.84-.39-1.13-.39-.3 0-.57.13-1.13.39l-.5.23c-1.96.9-2.94 1.35-3.6.86-.64-.5-.54-1.61-.32-3.83l.05-.58c.07-.63.1-.95 0-1.24-.09-.3-.29-.53-.7-1l-.36-.43c-1.43-1.67-2.14-2.5-1.9-3.3.26-.8 1.3-1.04 3.4-1.51l.53-.13c.6-.13.9-.2 1.13-.38.24-.18.4-.45.7-1l.28-.5Z"/>
</svg>
