<svg xmlns="http://www.w3.org/2000/svg" fill="none" viewBox="0 0 24 25">
  <path fill="#fff" d="M12 2.5a10 10 0 1 0 0 20 10 10 0 0 0 0-20Zm4.64 6.8c-.15 1.58-.8 5.42-1.13 7.19-.14.75-.42 1-.68 1.03-.58.05-1.02-.38-1.58-.75l-2.23-1.5c-.99-.65-.35-1.01.22-1.59.15-.15 2.71-2.48 2.76-2.69a.2.2 0 0 0-.05-.18c-.06-.05-.14-.03-.21-.02-.09.02-1.49.95-4.22 2.79-.4.27-.76.41-1.08.4a6.98 6.98 0 0 1-1.55-.37c-.63-.2-1.12-.31-1.08-.66.02-.18.27-.36.74-.55 2.92-1.27 4.86-2.11 5.83-2.51 2.78-1.16 3.35-1.36 3.73-1.36.08 0 .27.02.39.12.1.08.13.19.14.27v.38Z"/>
</svg>
