<svg width="602" height="602" viewBox="0 0 602 602" fill="none" xmlns="http://www.w3.org/2000/svg">
<g clip-path="url(#clip0_3094_24398)">
<rect width="602" height="602" fill="white"/>
<path d="M507.486 0H94.514C42.3154 0 0 42.3154 0 94.514V507.486C0 559.685 42.3154 602 94.514 602H507.486C559.685 602 602 559.685 602 507.486V94.514C602 42.3154 559.685 0 507.486 0Z" fill="white"/>
<path d="M114.251 456.338C107.048 456.179 101.037 453.521 96.2172 448.363C91.7323 442.851 89.5615 436.128 89.706 428.193L162.254 169.72C162.405 161.425 164.818 154.803 169.494 149.854C174.497 144.913 180.601 142.522 187.804 142.681C198.281 142.913 207.02 148.699 214.02 160.039L312.739 324.051L417.347 164.531C424.754 153.509 433.697 148.114 444.174 148.345C451.705 148.511 457.716 151.17 462.208 156.321C466.7 161.471 468.87 168.195 468.719 176.49L512.303 431.677C512.159 439.612 509.745 446.234 505.063 451.543C500.387 456.491 494.284 458.882 486.753 458.716C479.55 458.557 473.539 455.898 468.72 450.74C464.234 445.229 462.063 438.505 462.208 430.57L430.517 223.817L337.588 362.487C329.173 374.929 320.217 381.046 310.722 380.836C301.234 380.266 292.672 373.762 285.037 361.325L198.704 218.696L139.801 429.299C139.657 437.234 137.244 443.856 132.561 449.165C127.885 454.114 121.782 456.505 114.251 456.338Z" fill="#2563FF"/>
</g>
<defs>
<clipPath id="clip0_3094_24398">
<rect width="602" height="602" fill="white"/>
</clipPath>
</defs>
</svg>
