<svg width="142" height="29" viewBox="0 0 142 29" fill="none" xmlns="http://www.w3.org/2000/svg">
<path fill-rule="evenodd" clip-rule="evenodd" d="M11.0234 4C10.6485 4 10.3359 4.13738 10.1194 4.26448C9.89482 4.39631 9.69376 4.56424 9.52203 4.72924C9.17847 5.05935 8.85445 5.47347 8.58651 5.85122C8.31383 6.23564 8.07593 6.61574 7.90745 6.89708C7.82274 7.03853 7.75448 7.15687 7.70694 7.24067C7.68315 7.28261 7.66449 7.316 7.65149 7.33944L7.64652 7.34846L7.63364 7.3687C7.61534 7.39739 7.5886 7.43916 7.55542 7.49055C7.48889 7.59356 7.39721 7.73408 7.29612 7.88482C7.07844 8.20945 6.86597 8.5074 6.75853 8.62613C6.57069 8.83371 6.14796 9.06821 5.63736 9.26711C5.40472 9.35772 5.18952 9.42756 5.03253 9.47462C4.95454 9.498 4.89222 9.51537 4.85087 9.52652C4.83036 9.53206 4.81491 9.53608 4.80557 9.53849L4.77656 9.5449C4.74686 9.55153 4.70429 9.56115 4.65058 9.5736C4.54325 9.59846 4.39101 9.63471 4.20794 9.68099C3.84347 9.77313 3.34909 9.90697 2.8403 10.072C2.33901 10.2345 1.78825 10.4386 1.32771 10.6773C1.09795 10.7964 0.860328 10.9395 0.655611 11.1103C0.462227 11.2716 0.218403 11.5237 0.103251 11.8759C-0.173964 12.7258 0.147698 13.4927 0.586249 14.1563C1.00967 14.797 1.68058 15.5441 2.47826 16.4325L2.96152 16.9702C3.08358 17.1062 3.18807 17.2158 3.27062 17.3024L3.28747 17.3201C3.37755 17.4146 3.42603 17.4666 3.4634 17.5117C3.50675 17.5641 3.53974 17.6078 3.5916 17.764C3.61647 17.839 3.63205 18.0318 3.61166 18.2972C3.60285 18.4119 3.58953 18.5149 3.5784 18.5889C3.5729 18.6254 3.56808 18.6539 3.56488 18.6721L3.56147 18.6909L3.56118 18.6924L3.56092 18.6938L3.55296 18.7339L3.48185 19.4287L3.48144 19.4328L3.48049 19.4424L3.47715 19.4772C3.47434 19.5071 3.47041 19.55 3.46574 19.6044C3.4564 19.713 3.44408 19.8675 3.43181 20.0541C3.40738 20.4259 3.3827 20.9325 3.3832 21.4617C3.38369 21.9837 3.40848 22.5614 3.49309 23.0634C3.53525 23.3135 3.59738 23.5769 3.69517 23.8179C3.78579 24.0412 3.94921 24.3527 4.26113 24.578C5.02395 25.1291 5.89995 25.0524 6.67683 24.8405C7.42452 24.6365 8.34832 24.2313 9.43825 23.7532L9.51038 23.7216L10.1087 23.46L10.1108 23.4591C10.848 23.1349 10.9457 23.1152 11.0234 23.1152C11.1013 23.1152 11.1993 23.1352 11.9379 23.4595L12.5344 23.7211L12.6089 23.7538C13.6988 24.2316 14.6223 24.6365 15.3695 24.8405C16.1458 25.0525 17.0221 25.1296 17.7848 24.5788C18.2157 24.2674 18.4344 23.823 18.5523 23.4371C18.6725 23.0434 18.7186 22.6099 18.73 22.193C18.7527 21.3594 18.6386 20.4145 18.5272 19.6232C18.5118 19.514 18.4896 19.3823 18.4725 19.2845C18.4637 19.2343 18.4558 19.1902 18.4501 19.1586L18.4432 19.1211L18.4408 19.1078L18.4406 19.1065L18.4388 19.0969L18.437 19.0882L18.4368 19.0873L18.4362 19.0842L18.4313 19.0585C18.4268 19.0342 18.4201 18.9965 18.4126 18.9483C18.3973 18.8512 18.3791 18.7153 18.367 18.5624C18.3402 18.2241 18.355 17.9276 18.4094 17.7635C18.4778 17.5568 18.6584 17.2813 18.8798 17.0144C18.982 16.8912 19.0783 16.7871 19.1484 16.7145C19.1832 16.6785 19.2109 16.6509 19.2288 16.6333L19.2478 16.6149L19.2501 16.6126L19.251 16.6118L19.2641 16.5995L19.7627 16.0925L19.7774 16.0762C20.6478 15.1073 21.2132 14.3217 21.5537 13.6947C21.7241 13.3808 21.8479 13.089 21.9211 12.82C21.9912 12.5625 22.0319 12.2649 21.9685 11.9686L21.9585 11.9218L21.9436 11.8762C21.6631 11.0154 20.9336 10.5711 20.1735 10.2858C19.4473 10.0132 18.4585 9.8004 17.2924 9.54944L16.5793 9.3957C15.869 9.24277 15.7244 9.1951 15.6518 9.15029C15.6455 9.14222 15.5999 9.09642 15.5085 8.98487C15.3967 8.84839 15.2603 8.66874 15.1157 8.46852C14.8241 8.06486 14.5309 7.62207 14.3731 7.35253C14.2273 7.10349 14.091 6.86655 13.9625 6.64325C13.5654 5.95323 13.2433 5.39344 12.9481 5.00933C12.7363 4.73367 12.4797 4.46482 12.1373 4.27353C11.7767 4.07206 11.4001 4 11.0234 4ZM9.37394 8.31104L9.39042 8.28493L9.40532 8.25753L9.40774 8.25312L9.41897 8.23277C9.42924 8.21426 9.44495 8.18613 9.46558 8.14976C9.50688 8.07696 9.56765 7.97156 9.64372 7.84455C9.79678 7.58894 10.0074 7.25312 10.2425 6.92161C10.4824 6.58343 10.7255 6.28163 10.9408 6.07479C11.0183 6.00035 11.0795 5.95058 11.1235 5.91929C11.1211 5.91821 11.1186 5.9273 11.1139 5.92621C11.1046 5.92405 11.1683 5.92621 11.1139 5.92621C11.1109 5.92775 11.1193 5.92302 11.1139 5.92621C11.1139 5.92621 11.1406 5.90709 11.1235 5.91929C11.1246 5.91983 11.1126 5.92548 11.1139 5.92621C11.1266 5.93334 11.2054 5.96916 11.3356 6.13861C11.5473 6.41414 11.7762 6.81145 12.1398 7.44267C12.28 7.68609 12.4402 7.9643 12.6272 8.28372C12.8259 8.62333 13.1564 9.11928 13.4693 9.55235C13.6269 9.77049 13.788 9.98376 13.9331 10.1609C14.0507 10.3045 14.2341 10.5214 14.4242 10.6587C14.8838 10.9905 15.4408 11.1091 16.0119 11.2308L16.0125 11.2309L16.0132 11.2311C16.0551 11.24 16.0974 11.249 16.1394 11.258L16.7768 11.3955C18.0433 11.6681 18.8771 11.8506 19.4416 12.0625C19.7755 12.1878 19.9179 12.2881 19.981 12.3557C19.9532 12.451 19.8942 12.6023 19.7781 12.8161C19.5336 13.2664 19.0751 13.9234 18.2737 14.8173L17.831 15.2674C17.8221 15.2759 17.8102 15.2875 17.7956 15.3018C17.7663 15.3305 17.7262 15.3706 17.678 15.4205C17.5821 15.5198 17.4518 15.6605 17.3119 15.8292C17.0491 16.146 16.6832 16.6422 16.5025 17.1878C16.3273 17.7167 16.3421 18.319 16.3727 18.7061C16.3893 18.916 16.4141 19.0995 16.4347 19.231C16.4451 19.2972 16.4546 19.3512 16.4617 19.3901C16.4653 19.4095 16.4684 19.4252 16.4706 19.4368L16.4725 19.4459L16.4733 19.4507L16.4794 19.4841C16.4846 19.5128 16.4918 19.5529 16.4998 19.5986C16.5162 19.6927 16.5341 19.7997 16.5451 19.8775C16.6561 20.666 16.7489 21.477 16.7307 22.1433C16.7216 22.4764 16.6854 22.7288 16.6322 22.9029C16.6006 23.0064 16.5722 23.0528 16.5622 23.0674C16.5197 23.0899 16.3739 23.1291 15.9195 23.005C15.3377 22.8462 14.5548 22.506 13.369 21.9862L12.7733 21.7249C12.7337 21.7075 12.6943 21.6901 12.6549 21.6727C12.1218 21.4372 11.5985 21.2061 11.0234 21.2061C10.4476 21.2061 9.92402 21.4377 9.39102 21.6735C9.35238 21.6906 9.31369 21.7077 9.27493 21.7247L9.27395 21.7251L8.67658 21.9863C7.49125 22.5061 6.70881 22.8462 6.12718 23.0049C5.79381 23.0958 5.62649 23.0989 5.54409 23.0851C5.51951 23.0129 5.49225 22.9061 5.46763 22.7601C5.40769 22.4045 5.38359 21.9428 5.38313 21.46C5.38269 20.9844 5.40502 20.5208 5.42783 20.1737C5.43918 20.0008 5.45054 19.8587 5.45898 19.7605C5.4632 19.7114 5.46668 19.6734 5.46905 19.6482L5.47174 19.6202L5.47237 19.6137L5.47251 19.6124L5.53534 18.9985L5.53701 18.9893C5.54261 18.9576 5.54999 18.9137 5.55804 18.8602C5.57402 18.7539 5.59326 18.6058 5.60624 18.4369C5.62941 18.1352 5.64549 17.6312 5.49808 17.1872C5.38024 16.8323 5.23984 16.5786 5.03295 16.3286C4.94532 16.2226 4.8493 16.1219 4.76676 16.0353L4.75185 16.0196C4.66877 15.9325 4.58182 15.8413 4.47992 15.7277L4.04526 15.2441C3.18346 14.2843 2.6127 13.6445 2.27771 13.1377C2.0513 12.7951 2.00381 12.6174 2.00121 12.5245C2.05871 12.4814 2.14979 12.4236 2.28212 12.355C2.5968 12.1919 3.02463 12.0285 3.48358 11.8796C3.93505 11.7332 4.38256 11.6118 4.71994 11.5265C4.88779 11.4841 5.02646 11.4511 5.1223 11.4289C5.17018 11.4178 5.20726 11.4094 5.23182 11.4039L5.25903 11.3979L5.26516 11.3965L5.26636 11.3963L5.28067 11.3932L5.29548 11.3896L5.29675 11.3892L5.29902 11.3887L5.30547 11.3871L5.32585 11.3819C5.34268 11.3776 5.3659 11.3715 5.39482 11.3637C5.45258 11.3481 5.53343 11.3255 5.63168 11.2961C5.82716 11.2375 6.09667 11.1501 6.39297 11.0347C6.94022 10.8216 7.75225 10.4485 8.272 9.87411C8.48972 9.63351 8.77837 9.21554 8.98052 8.91407C9.08936 8.75177 9.18727 8.6017 9.25786 8.49238C9.29324 8.4376 9.32194 8.39277 9.34194 8.36141L9.36521 8.32483L9.37323 8.31217L9.37394 8.31104ZM16.5772 23.0571C16.576 23.0582 16.5732 23.0608 16.5682 23.064C16.5708 23.0618 16.5735 23.0598 16.5772 23.0571ZM5.47964 23.0643C5.47588 23.0614 5.47199 23.0586 5.46798 23.0557L5.46881 23.0564C5.47031 23.0577 5.47358 23.0607 5.47964 23.0643Z" fill="white"/>
<path d="M9.39042 8.28493L9.37394 8.31104L9.37323 8.31217L9.36521 8.32483L9.34194 8.36141C9.32194 8.39277 9.29324 8.4376 9.25786 8.49238C9.18727 8.6017 9.08936 8.75177 8.98052 8.91407C8.77837 9.21554 8.48972 9.63351 8.272 9.87411C7.75225 10.4485 6.94022 10.8216 6.39297 11.0347C6.09667 11.1501 5.82716 11.2375 5.63168 11.2961C5.53343 11.3255 5.45258 11.3481 5.39482 11.3637C5.3659 11.3715 5.34268 11.3776 5.32585 11.3819L5.30547 11.3871L5.29902 11.3887L5.29675 11.3892L5.29548 11.3896L5.28067 11.3932L5.26636 11.3963L5.26516 11.3965L5.25903 11.3979L5.23182 11.4039C5.20726 11.4094 5.17018 11.4178 5.1223 11.4289C5.02646 11.4511 4.88779 11.4841 4.71994 11.5265C4.38256 11.6118 3.93505 11.7332 3.48358 11.8796C3.02463 12.0285 2.5968 12.1919 2.28212 12.355C2.14979 12.4236 2.05871 12.4814 2.00121 12.5245C2.00381 12.6174 2.0513 12.7951 2.27771 13.1377C2.6127 13.6445 3.18346 14.2843 4.04526 15.2441L4.47992 15.7277C4.58182 15.8413 4.66877 15.9325 4.75185 16.0196L4.76676 16.0353C4.8493 16.1219 4.94532 16.2226 5.03295 16.3286C5.23984 16.5786 5.38024 16.8323 5.49808 17.1872C5.64549 17.6312 5.62941 18.1352 5.60624 18.4369C5.59326 18.6058 5.57402 18.7539 5.55804 18.8602C5.54999 18.9137 5.54261 18.9576 5.53701 18.9893L5.53534 18.9985L5.47251 19.6124L5.47237 19.6137L5.47174 19.6202L5.46905 19.6482C5.46668 19.6734 5.4632 19.7114 5.45898 19.7605C5.45054 19.8587 5.43918 20.0008 5.42783 20.1737C5.40502 20.5208 5.38269 20.9844 5.38313 21.46C5.38359 21.9428 5.40769 22.4045 5.46763 22.7601C5.49225 22.9061 5.51951 23.0129 5.54409 23.0851C5.62649 23.0989 5.79381 23.0958 6.12718 23.0049C6.70881 22.8462 7.49125 22.5061 8.67658 21.9863L9.27395 21.7251L9.27493 21.7247C9.31369 21.7077 9.35238 21.6906 9.39102 21.6735C9.92402 21.4377 10.4476 21.2061 11.0234 21.2061C11.5985 21.2061 12.1218 21.4372 12.6549 21.6727C12.6943 21.6901 12.7337 21.7075 12.7733 21.7249L13.369 21.9862C14.5548 22.506 15.3377 22.8462 15.9195 23.005C16.3739 23.1291 16.5197 23.0899 16.5622 23.0674C16.5722 23.0528 16.6006 23.0064 16.6322 22.9029C16.6854 22.7288 16.7216 22.4764 16.7307 22.1433C16.7489 21.477 16.6561 20.666 16.5451 19.8775C16.5341 19.7997 16.5162 19.6927 16.4998 19.5986C16.4918 19.5529 16.4846 19.5128 16.4794 19.4841L16.4733 19.4507L16.4725 19.4459L16.4706 19.4368C16.4684 19.4252 16.4653 19.4095 16.4617 19.3901C16.4546 19.3512 16.4451 19.2972 16.4347 19.231C16.4141 19.0995 16.3893 18.916 16.3727 18.7061C16.3421 18.319 16.3273 17.7167 16.5025 17.1878C16.6832 16.6422 17.0491 16.146 17.3119 15.8292C17.4518 15.6605 17.5821 15.5198 17.678 15.4205C17.7262 15.3706 17.7663 15.3305 17.7956 15.3018C17.8102 15.2875 17.8221 15.2759 17.831 15.2674L18.2737 14.8173C19.0751 13.9234 19.5336 13.2664 19.7781 12.8161C19.8942 12.6023 19.9532 12.451 19.981 12.3557C19.9179 12.2881 19.7755 12.1878 19.4416 12.0625C18.8771 11.8506 18.0433 11.6681 16.7768 11.3955L16.1394 11.258C16.0974 11.249 16.0551 11.24 16.0132 11.2311L16.0125 11.2309L16.0119 11.2308C15.4408 11.1091 14.8838 10.9905 14.4242 10.6587C14.2341 10.5214 14.0507 10.3045 13.9331 10.1609C13.788 9.98376 13.6269 9.77049 13.4693 9.55235C13.1564 9.11928 12.8259 8.62333 12.6272 8.28372C12.4402 7.9643 12.28 7.68609 12.1398 7.44267C11.7762 6.81145 11.5473 6.41414 11.3356 6.13861C11.2054 5.96916 11.1266 5.93334 11.1139 5.92621C11.0708 5.95775 11.0128 6.00561 10.9408 6.07479C10.7255 6.28163 10.4824 6.58343 10.2425 6.92161C10.0074 7.25312 9.79678 7.58894 9.64372 7.84455C9.56765 7.97156 9.50688 8.07696 9.46558 8.14976C9.44495 8.18613 9.42924 8.21426 9.41897 8.23277L9.40774 8.25312L9.40532 8.25753L9.39042 8.28493Z" fill="white"/>
<path fill-rule="evenodd" clip-rule="evenodd" d="M41.0234 4C40.6485 4 40.3359 4.13738 40.1194 4.26448C39.8948 4.39631 39.6938 4.56424 39.522 4.72924C39.1785 5.05935 38.8545 5.47347 38.5865 5.85122C38.3138 6.23564 38.0759 6.61574 37.9075 6.89708C37.8227 7.03853 37.7545 7.15687 37.7069 7.24067C37.6832 7.28261 37.6645 7.316 37.6515 7.33944L37.6465 7.34846L37.6336 7.3687C37.6153 7.39739 37.5886 7.43916 37.5554 7.49055C37.4889 7.59356 37.3972 7.73408 37.2961 7.88482C37.0784 8.20945 36.866 8.5074 36.7585 8.62613C36.5707 8.83371 36.148 9.06821 35.6374 9.26711C35.4047 9.35772 35.1895 9.42756 35.0325 9.47462C34.9545 9.498 34.8922 9.51537 34.8509 9.52652C34.8304 9.53206 34.8149 9.53608 34.8056 9.53849L34.7766 9.5449C34.7469 9.55153 34.7043 9.56115 34.6506 9.5736C34.5432 9.59846 34.391 9.63471 34.2079 9.68099C33.8435 9.77313 33.3491 9.90697 32.8403 10.072C32.339 10.2345 31.7882 10.4386 31.3277 10.6773C31.0979 10.7964 30.8603 10.9395 30.6556 11.1103C30.4622 11.2716 30.2184 11.5237 30.1033 11.8759C29.826 12.7258 30.1477 13.4927 30.5862 14.1563C31.0097 14.797 31.6806 15.5441 32.4783 16.4325L32.9615 16.9702C33.0836 17.1062 33.1881 17.2158 33.2706 17.3024L33.2875 17.3201C33.3775 17.4146 33.426 17.4666 33.4634 17.5117C33.5067 17.5641 33.5397 17.6078 33.5916 17.764C33.6165 17.839 33.632 18.0318 33.6117 18.2972C33.6028 18.4119 33.5895 18.5149 33.5784 18.5889C33.5729 18.6254 33.5681 18.6539 33.5649 18.6721L33.5615 18.6909L33.5612 18.6924L33.5609 18.6938L33.553 18.7339L33.4818 19.4287L33.4814 19.4328L33.4805 19.4424L33.4772 19.4772C33.4743 19.5071 33.4704 19.55 33.4657 19.6044C33.4564 19.713 33.4441 19.8675 33.4318 20.0541C33.4074 20.4259 33.3827 20.9325 33.3832 21.4617C33.3837 21.9837 33.4085 22.5614 33.4931 23.0634C33.5353 23.3135 33.5974 23.5769 33.6952 23.8179C33.7858 24.0412 33.9492 24.3527 34.2611 24.578C35.024 25.1291 35.9 25.0524 36.6768 24.8405C37.4245 24.6365 38.3483 24.2313 39.4382 23.7532L39.5104 23.7216L40.1087 23.46L40.1108 23.4591C40.848 23.1349 40.9457 23.1152 41.0234 23.1152C41.1013 23.1152 41.1993 23.1352 41.9379 23.4595L42.5344 23.7211L42.6089 23.7538C43.6988 24.2316 44.6223 24.6365 45.3695 24.8405C46.1458 25.0525 47.0221 25.1296 47.7848 24.5788C48.2157 24.2674 48.4344 23.823 48.5523 23.4371C48.6725 23.0434 48.7186 22.6099 48.73 22.193C48.7527 21.3594 48.6386 20.4145 48.5272 19.6232C48.5118 19.514 48.4896 19.3823 48.4725 19.2845C48.4637 19.2343 48.4558 19.1902 48.4501 19.1586L48.4432 19.1211L48.4408 19.1078L48.4406 19.1065L48.4388 19.0969L48.437 19.0882L48.4368 19.0873L48.4362 19.0842L48.4313 19.0585C48.4268 19.0342 48.4201 18.9965 48.4126 18.9483C48.3973 18.8512 48.3791 18.7153 48.367 18.5624C48.3402 18.2241 48.355 17.9276 48.4094 17.7635C48.4778 17.5568 48.6584 17.2813 48.8798 17.0144C48.982 16.8912 49.0783 16.7871 49.1484 16.7145C49.1832 16.6785 49.2109 16.6509 49.2288 16.6333L49.2478 16.6149L49.2501 16.6126L49.251 16.6118L49.2641 16.5995L49.7627 16.0925L49.7774 16.0762C50.6478 15.1073 51.2132 14.3217 51.5537 13.6947C51.7241 13.3808 51.8479 13.089 51.9211 12.82C51.9912 12.5625 52.0319 12.2649 51.9685 11.9686L51.9585 11.9218L51.9436 11.8762C51.6631 11.0154 50.9336 10.5711 50.1735 10.2858C49.4473 10.0132 48.4585 9.8004 47.2924 9.54944L46.5793 9.3957C45.869 9.24277 45.7244 9.1951 45.6518 9.15029C45.6455 9.14222 45.5999 9.09642 45.5085 8.98487C45.3967 8.84839 45.2603 8.66874 45.1157 8.46852C44.8241 8.06486 44.5309 7.62207 44.3731 7.35253C44.2273 7.10349 44.091 6.86655 43.9625 6.64325C43.5654 5.95323 43.2433 5.39344 42.9481 5.00933C42.7363 4.73367 42.4797 4.46482 42.1373 4.27353C41.7767 4.07206 41.4001 4 41.0234 4ZM39.3739 8.31104L39.3904 8.28493L39.4053 8.25753L39.4077 8.25312L39.419 8.23277C39.4292 8.21426 39.4449 8.18613 39.4656 8.14976C39.5069 8.07696 39.5677 7.97156 39.6437 7.84455C39.7968 7.58894 40.0074 7.25312 40.2425 6.92161C40.4824 6.58343 40.7255 6.28163 40.9408 6.07479C41.0183 6.00035 41.0795 5.95058 41.1235 5.91929C41.1211 5.91821 41.1186 5.9273 41.1139 5.92621C41.1046 5.92405 41.1683 5.92621 41.1139 5.92621C41.1109 5.92775 41.1193 5.92302 41.1139 5.92621C41.1139 5.92621 41.1406 5.90709 41.1235 5.91929C41.1246 5.91983 41.1126 5.92548 41.1139 5.92621C41.1266 5.93334 41.2054 5.96916 41.3356 6.13861C41.5473 6.41414 41.7762 6.81145 42.1398 7.44267C42.28 7.68609 42.4402 7.9643 42.6272 8.28372C42.8259 8.62333 43.1564 9.11928 43.4693 9.55235C43.6269 9.77049 43.788 9.98376 43.9331 10.1609C44.0507 10.3045 44.2341 10.5214 44.4242 10.6587C44.8838 10.9905 45.4408 11.1091 46.0119 11.2308L46.0125 11.2309L46.0132 11.2311C46.0551 11.24 46.0974 11.249 46.1394 11.258L46.7768 11.3955C48.0433 11.6681 48.8771 11.8506 49.4416 12.0625C49.7755 12.1878 49.9179 12.2881 49.981 12.3557C49.9532 12.451 49.8942 12.6023 49.7781 12.8161C49.5336 13.2664 49.0751 13.9234 48.2737 14.8173L47.831 15.2674C47.8221 15.2759 47.8102 15.2875 47.7956 15.3018C47.7663 15.3305 47.7262 15.3706 47.678 15.4205C47.5821 15.5198 47.4518 15.6605 47.3119 15.8292C47.0491 16.146 46.6832 16.6422 46.5025 17.1878C46.3273 17.7167 46.3421 18.319 46.3727 18.7061C46.3893 18.916 46.4141 19.0995 46.4347 19.231C46.4451 19.2972 46.4546 19.3512 46.4617 19.3901C46.4653 19.4095 46.4684 19.4252 46.4706 19.4368L46.4725 19.4459L46.4733 19.4507L46.4794 19.4841C46.4846 19.5128 46.4918 19.5529 46.4998 19.5986C46.5162 19.6927 46.5341 19.7997 46.5451 19.8775C46.6561 20.666 46.7489 21.477 46.7307 22.1433C46.7216 22.4764 46.6854 22.7288 46.6322 22.9029C46.6006 23.0064 46.5722 23.0528 46.5622 23.0674C46.5197 23.0899 46.3739 23.1291 45.9195 23.005C45.3377 22.8462 44.5548 22.506 43.369 21.9862L42.7733 21.7249C42.7337 21.7075 42.6943 21.6901 42.6549 21.6727C42.1218 21.4372 41.5985 21.2061 41.0234 21.2061C40.4476 21.2061 39.924 21.4377 39.391 21.6735C39.3524 21.6906 39.3137 21.7077 39.2749 21.7247L39.274 21.7251L38.6766 21.9863C37.4913 22.5061 36.7088 22.8462 36.1272 23.0049C35.7938 23.0958 35.6265 23.0989 35.5441 23.0851C35.5195 23.0129 35.4922 22.9061 35.4676 22.7601C35.4077 22.4045 35.3836 21.9428 35.3831 21.46C35.3827 20.9844 35.405 20.5208 35.4278 20.1737C35.4392 20.0008 35.4505 19.8587 35.459 19.7605C35.4632 19.7114 35.4667 19.6734 35.4691 19.6482L35.4717 19.6202L35.4724 19.6137L35.4725 19.6124L35.5353 18.9985L35.537 18.9893C35.5426 18.9576 35.55 18.9137 35.558 18.8602C35.574 18.7539 35.5933 18.6058 35.6062 18.4369C35.6294 18.1352 35.6455 17.6312 35.4981 17.1872C35.3802 16.8323 35.2398 16.5786 35.033 16.3286C34.9453 16.2226 34.8493 16.1219 34.7668 16.0353L34.7519 16.0196C34.6688 15.9325 34.5818 15.8413 34.4799 15.7277L34.0453 15.2441C33.1835 14.2843 32.6127 13.6445 32.2777 13.1377C32.0513 12.7951 32.0038 12.6174 32.0012 12.5245C32.0587 12.4814 32.1498 12.4236 32.2821 12.355C32.5968 12.1919 33.0246 12.0285 33.4836 11.8796C33.935 11.7332 34.3826 11.6118 34.7199 11.5265C34.8878 11.4841 35.0265 11.4511 35.1223 11.4289C35.1702 11.4178 35.2073 11.4094 35.2318 11.4039L35.259 11.3979L35.2652 11.3965L35.2664 11.3963L35.2807 11.3932L35.2955 11.3896L35.2968 11.3892L35.299 11.3887L35.3055 11.3871L35.3259 11.3819C35.3427 11.3776 35.3659 11.3715 35.3948 11.3637C35.4526 11.3481 35.5334 11.3255 35.6317 11.2961C35.8272 11.2375 36.0967 11.1501 36.393 11.0347C36.9402 10.8216 37.7523 10.4485 38.272 9.87411C38.4897 9.63351 38.7784 9.21554 38.9805 8.91407C39.0894 8.75177 39.1873 8.6017 39.2579 8.49238C39.2932 8.4376 39.3219 8.39277 39.3419 8.36141L39.3652 8.32483L39.3732 8.31217L39.3739 8.31104ZM46.5772 23.0571C46.576 23.0582 46.5732 23.0608 46.5682 23.064C46.5708 23.0618 46.5735 23.0598 46.5772 23.0571ZM35.4796 23.0643C35.4759 23.0614 35.472 23.0586 35.468 23.0557L35.4688 23.0564C35.4703 23.0577 35.4736 23.0607 35.4796 23.0643Z" fill="white"/>
<path d="M39.3904 8.28493L39.3739 8.31104L39.3732 8.31217L39.3652 8.32483L39.3419 8.36141C39.3219 8.39277 39.2932 8.4376 39.2579 8.49238C39.1873 8.6017 39.0894 8.75177 38.9805 8.91407C38.7784 9.21554 38.4897 9.63351 38.272 9.87411C37.7523 10.4485 36.9402 10.8216 36.393 11.0347C36.0967 11.1501 35.8272 11.2375 35.6317 11.2961C35.5334 11.3255 35.4526 11.3481 35.3948 11.3637C35.3659 11.3715 35.3427 11.3776 35.3259 11.3819L35.3055 11.3871L35.299 11.3887L35.2968 11.3892L35.2955 11.3896L35.2807 11.3932L35.2664 11.3963L35.2652 11.3965L35.259 11.3979L35.2318 11.4039C35.2073 11.4094 35.1702 11.4178 35.1223 11.4289C35.0265 11.4511 34.8878 11.4841 34.7199 11.5265C34.3826 11.6118 33.935 11.7332 33.4836 11.8796C33.0246 12.0285 32.5968 12.1919 32.2821 12.355C32.1498 12.4236 32.0587 12.4814 32.0012 12.5245C32.0038 12.6174 32.0513 12.7951 32.2777 13.1377C32.6127 13.6445 33.1835 14.2843 34.0453 15.2441L34.4799 15.7277C34.5818 15.8413 34.6688 15.9325 34.7519 16.0196L34.7668 16.0353C34.8493 16.1219 34.9453 16.2226 35.033 16.3286C35.2398 16.5786 35.3802 16.8323 35.4981 17.1872C35.6455 17.6312 35.6294 18.1352 35.6062 18.4369C35.5933 18.6058 35.574 18.7539 35.558 18.8602C35.55 18.9137 35.5426 18.9576 35.537 18.9893L35.5353 18.9985L35.4725 19.6124L35.4724 19.6137L35.4717 19.6202L35.4691 19.6482C35.4667 19.6734 35.4632 19.7114 35.459 19.7605C35.4505 19.8587 35.4392 20.0008 35.4278 20.1737C35.405 20.5208 35.3827 20.9844 35.3831 21.46C35.3836 21.9428 35.4077 22.4045 35.4676 22.7601C35.4922 22.9061 35.5195 23.0129 35.5441 23.0851C35.6265 23.0989 35.7938 23.0958 36.1272 23.0049C36.7088 22.8462 37.4913 22.5061 38.6766 21.9863L39.274 21.7251L39.2749 21.7247C39.3137 21.7077 39.3524 21.6906 39.391 21.6735C39.924 21.4377 40.4476 21.2061 41.0234 21.2061C41.5985 21.2061 42.1218 21.4372 42.6549 21.6727C42.6943 21.6901 42.7337 21.7075 42.7733 21.7249L43.369 21.9862C44.5548 22.506 45.3377 22.8462 45.9195 23.005C46.3739 23.1291 46.5197 23.0899 46.5622 23.0674C46.5722 23.0528 46.6006 23.0064 46.6322 22.9029C46.6854 22.7288 46.7216 22.4764 46.7307 22.1433C46.7489 21.477 46.6561 20.666 46.5451 19.8775C46.5341 19.7997 46.5162 19.6927 46.4998 19.5986C46.4918 19.5529 46.4846 19.5128 46.4794 19.4841L46.4733 19.4507L46.4725 19.4459L46.4706 19.4368C46.4684 19.4252 46.4653 19.4095 46.4617 19.3901C46.4546 19.3512 46.4451 19.2972 46.4347 19.231C46.4141 19.0995 46.3893 18.916 46.3727 18.7061C46.3421 18.319 46.3273 17.7167 46.5025 17.1878C46.6832 16.6422 47.0491 16.146 47.3119 15.8292C47.4518 15.6605 47.5821 15.5198 47.678 15.4205C47.7262 15.3706 47.7663 15.3305 47.7956 15.3018C47.8102 15.2875 47.8221 15.2759 47.831 15.2674L48.2737 14.8173C49.0751 13.9234 49.5336 13.2664 49.7781 12.8161C49.8942 12.6023 49.9532 12.451 49.981 12.3557C49.9179 12.2881 49.7755 12.1878 49.4416 12.0625C48.8771 11.8506 48.0433 11.6681 46.7768 11.3955L46.1394 11.258C46.0974 11.249 46.0551 11.24 46.0132 11.2311L46.0125 11.2309L46.0119 11.2308C45.4408 11.1091 44.8838 10.9905 44.4242 10.6587C44.2341 10.5214 44.0507 10.3045 43.9331 10.1609C43.788 9.98376 43.6269 9.77049 43.4693 9.55235C43.1564 9.11928 42.8259 8.62333 42.6272 8.28372C42.4402 7.9643 42.28 7.68609 42.1398 7.44267C41.7762 6.81145 41.5473 6.41414 41.3356 6.13861C41.2054 5.96916 41.1266 5.93334 41.1139 5.92621C41.0708 5.95775 41.0128 6.00561 40.9408 6.07479C40.7255 6.28163 40.4824 6.58343 40.2425 6.92161C40.0074 7.25312 39.7968 7.58894 39.6437 7.84455C39.5677 7.97156 39.5069 8.07696 39.4656 8.14976C39.4449 8.18613 39.4292 8.21426 39.419 8.23277L39.4077 8.25312L39.4053 8.25753L39.3904 8.28493Z" fill="white"/>
<path fill-rule="evenodd" clip-rule="evenodd" d="M71.0234 4C70.6485 4 70.3359 4.13738 70.1194 4.26448C69.8948 4.39631 69.6938 4.56424 69.522 4.72924C69.1785 5.05935 68.8545 5.47347 68.5865 5.85122C68.3138 6.23564 68.0759 6.61574 67.9075 6.89708C67.8227 7.03853 67.7545 7.15687 67.7069 7.24067C67.6832 7.28261 67.6645 7.316 67.6515 7.33944L67.6465 7.34846L67.6336 7.3687C67.6153 7.39739 67.5886 7.43916 67.5554 7.49055C67.4889 7.59356 67.3972 7.73408 67.2961 7.88482C67.0784 8.20945 66.866 8.5074 66.7585 8.62613C66.5707 8.83371 66.148 9.06821 65.6374 9.26711C65.4047 9.35772 65.1895 9.42756 65.0325 9.47462C64.9545 9.498 64.8922 9.51537 64.8509 9.52652C64.8304 9.53206 64.8149 9.53608 64.8056 9.53849L64.7766 9.5449C64.7469 9.55153 64.7043 9.56115 64.6506 9.5736C64.5432 9.59846 64.391 9.63471 64.2079 9.68099C63.8435 9.77313 63.3491 9.90697 62.8403 10.072C62.339 10.2345 61.7882 10.4386 61.3277 10.6773C61.0979 10.7964 60.8603 10.9395 60.6556 11.1103C60.4622 11.2716 60.2184 11.5237 60.1033 11.8759C59.826 12.7258 60.1477 13.4927 60.5862 14.1563C61.0097 14.797 61.6806 15.5441 62.4783 16.4325L62.9615 16.9702C63.0836 17.1062 63.1881 17.2158 63.2706 17.3024L63.2875 17.3201C63.3775 17.4146 63.426 17.4666 63.4634 17.5117C63.5067 17.5641 63.5397 17.6078 63.5916 17.764C63.6165 17.839 63.632 18.0318 63.6117 18.2972C63.6028 18.4119 63.5895 18.5149 63.5784 18.5889C63.5729 18.6254 63.5681 18.6539 63.5649 18.6721L63.5615 18.6909L63.5612 18.6924L63.5609 18.6938L63.553 18.7339L63.4818 19.4287L63.4814 19.4328L63.4805 19.4424L63.4772 19.4772C63.4743 19.5071 63.4704 19.55 63.4657 19.6044C63.4564 19.713 63.4441 19.8675 63.4318 20.0541C63.4074 20.4259 63.3827 20.9325 63.3832 21.4617C63.3837 21.9837 63.4085 22.5614 63.4931 23.0634C63.5353 23.3135 63.5974 23.5769 63.6952 23.8179C63.7858 24.0412 63.9492 24.3527 64.2611 24.578C65.024 25.1291 65.9 25.0524 66.6768 24.8405C67.4245 24.6365 68.3483 24.2313 69.4382 23.7532L69.5104 23.7216L70.1087 23.46L70.1108 23.4591C70.848 23.1349 70.9457 23.1152 71.0234 23.1152C71.1013 23.1152 71.1993 23.1352 71.9379 23.4595L72.5344 23.7211L72.6089 23.7538C73.6988 24.2316 74.6223 24.6365 75.3695 24.8405C76.1458 25.0525 77.0221 25.1296 77.7848 24.5788C78.2157 24.2674 78.4344 23.823 78.5523 23.4371C78.6725 23.0434 78.7186 22.6099 78.73 22.193C78.7527 21.3594 78.6386 20.4145 78.5272 19.6232C78.5118 19.514 78.4896 19.3823 78.4725 19.2845C78.4637 19.2343 78.4558 19.1902 78.4501 19.1586L78.4432 19.1211L78.4408 19.1078L78.4406 19.1065L78.4388 19.0969L78.437 19.0882L78.4368 19.0873L78.4362 19.0842L78.4313 19.0585C78.4268 19.0342 78.4201 18.9965 78.4126 18.9483C78.3973 18.8512 78.3791 18.7153 78.367 18.5624C78.3402 18.2241 78.355 17.9276 78.4094 17.7635C78.4778 17.5568 78.6584 17.2813 78.8798 17.0144C78.982 16.8912 79.0783 16.7871 79.1484 16.7145C79.1832 16.6785 79.2109 16.6509 79.2288 16.6333L79.2478 16.6149L79.2501 16.6126L79.251 16.6118L79.2641 16.5995L79.7627 16.0925L79.7774 16.0762C80.6478 15.1073 81.2132 14.3217 81.5537 13.6947C81.7241 13.3808 81.8479 13.089 81.9211 12.82C81.9912 12.5625 82.0319 12.2649 81.9685 11.9686L81.9585 11.9218L81.9436 11.8762C81.6631 11.0154 80.9336 10.5711 80.1735 10.2858C79.4473 10.0132 78.4585 9.8004 77.2924 9.54944L76.5793 9.3957C75.869 9.24277 75.7244 9.1951 75.6518 9.15029C75.6455 9.14222 75.5999 9.09642 75.5085 8.98487C75.3967 8.84839 75.2603 8.66874 75.1157 8.46852C74.8241 8.06486 74.5309 7.62207 74.3731 7.35253C74.2273 7.10349 74.091 6.86655 73.9625 6.64325C73.5654 5.95323 73.2433 5.39344 72.9481 5.00933C72.7363 4.73367 72.4797 4.46482 72.1373 4.27353C71.7767 4.07206 71.4001 4 71.0234 4ZM69.3739 8.31104L69.3904 8.28493L69.4053 8.25753L69.4077 8.25312L69.419 8.23277C69.4292 8.21426 69.4449 8.18613 69.4656 8.14976C69.5069 8.07696 69.5677 7.97156 69.6437 7.84455C69.7968 7.58894 70.0074 7.25312 70.2425 6.92161C70.4824 6.58343 70.7255 6.28163 70.9408 6.07479C71.0183 6.00035 71.0795 5.95058 71.1235 5.91929C71.1211 5.91821 71.1186 5.9273 71.1139 5.92621C71.1046 5.92405 71.1683 5.92621 71.1139 5.92621C71.1109 5.92775 71.1193 5.92302 71.1139 5.92621C71.1139 5.92621 71.1406 5.90709 71.1235 5.91929C71.1246 5.91983 71.1126 5.92548 71.1139 5.92621C71.1266 5.93334 71.2054 5.96916 71.3356 6.13861C71.5473 6.41414 71.7762 6.81145 72.1398 7.44267C72.28 7.68609 72.4402 7.9643 72.6272 8.28372C72.8259 8.62333 73.1564 9.11928 73.4693 9.55235C73.6269 9.77049 73.788 9.98376 73.9331 10.1609C74.0507 10.3045 74.2341 10.5214 74.4242 10.6587C74.8838 10.9905 75.4408 11.1091 76.0119 11.2308L76.0125 11.2309L76.0132 11.2311C76.0551 11.24 76.0974 11.249 76.1394 11.258L76.7768 11.3955C78.0433 11.6681 78.8771 11.8506 79.4416 12.0625C79.7755 12.1878 79.9179 12.2881 79.981 12.3557C79.9532 12.451 79.8942 12.6023 79.7781 12.8161C79.5336 13.2664 79.0751 13.9234 78.2737 14.8173L77.831 15.2674C77.8221 15.2759 77.8102 15.2875 77.7956 15.3018C77.7663 15.3305 77.7262 15.3706 77.678 15.4205C77.5821 15.5198 77.4518 15.6605 77.3119 15.8292C77.0491 16.146 76.6832 16.6422 76.5025 17.1878C76.3273 17.7167 76.3421 18.319 76.3727 18.7061C76.3893 18.916 76.4141 19.0995 76.4347 19.231C76.4451 19.2972 76.4546 19.3512 76.4617 19.3901C76.4653 19.4095 76.4684 19.4252 76.4706 19.4368L76.4725 19.4459L76.4733 19.4507L76.4794 19.4841C76.4846 19.5128 76.4918 19.5529 76.4998 19.5986C76.5162 19.6927 76.5341 19.7997 76.5451 19.8775C76.6561 20.666 76.7489 21.477 76.7307 22.1433C76.7216 22.4764 76.6854 22.7288 76.6322 22.9029C76.6006 23.0064 76.5722 23.0528 76.5622 23.0674C76.5197 23.0899 76.3739 23.1291 75.9195 23.005C75.3377 22.8462 74.5548 22.506 73.369 21.9862L72.7733 21.7249C72.7337 21.7075 72.6943 21.6901 72.6549 21.6727C72.1218 21.4372 71.5985 21.2061 71.0234 21.2061C70.4476 21.2061 69.924 21.4377 69.391 21.6735C69.3524 21.6906 69.3137 21.7077 69.2749 21.7247L69.274 21.7251L68.6766 21.9863C67.4913 22.5061 66.7088 22.8462 66.1272 23.0049C65.7938 23.0958 65.6265 23.0989 65.5441 23.0851C65.5195 23.0129 65.4922 22.9061 65.4676 22.7601C65.4077 22.4045 65.3836 21.9428 65.3831 21.46C65.3827 20.9844 65.405 20.5208 65.4278 20.1737C65.4392 20.0008 65.4505 19.8587 65.459 19.7605C65.4632 19.7114 65.4667 19.6734 65.4691 19.6482L65.4717 19.6202L65.4724 19.6137L65.4725 19.6124L65.5353 18.9985L65.537 18.9893C65.5426 18.9576 65.55 18.9137 65.558 18.8602C65.574 18.7539 65.5933 18.6058 65.6062 18.4369C65.6294 18.1352 65.6455 17.6312 65.4981 17.1872C65.3802 16.8323 65.2398 16.5786 65.033 16.3286C64.9453 16.2226 64.8493 16.1219 64.7668 16.0353L64.7519 16.0196C64.6688 15.9325 64.5818 15.8413 64.4799 15.7277L64.0453 15.2441C63.1835 14.2843 62.6127 13.6445 62.2777 13.1377C62.0513 12.7951 62.0038 12.6174 62.0012 12.5245C62.0587 12.4814 62.1498 12.4236 62.2821 12.355C62.5968 12.1919 63.0246 12.0285 63.4836 11.8796C63.935 11.7332 64.3826 11.6118 64.7199 11.5265C64.8878 11.4841 65.0265 11.4511 65.1223 11.4289C65.1702 11.4178 65.2073 11.4094 65.2318 11.4039L65.259 11.3979L65.2652 11.3965L65.2664 11.3963L65.2807 11.3932L65.2955 11.3896L65.2968 11.3892L65.299 11.3887L65.3055 11.3871L65.3259 11.3819C65.3427 11.3776 65.3659 11.3715 65.3948 11.3637C65.4526 11.3481 65.5334 11.3255 65.6317 11.2961C65.8272 11.2375 66.0967 11.1501 66.393 11.0347C66.9402 10.8216 67.7523 10.4485 68.272 9.87411C68.4897 9.63351 68.7784 9.21554 68.9805 8.91407C69.0894 8.75177 69.1873 8.6017 69.2579 8.49238C69.2932 8.4376 69.3219 8.39277 69.3419 8.36141L69.3652 8.32483L69.3732 8.31217L69.3739 8.31104ZM76.5772 23.0571C76.576 23.0582 76.5732 23.0608 76.5682 23.064C76.5708 23.0618 76.5735 23.0598 76.5772 23.0571ZM65.4796 23.0643C65.4759 23.0614 65.472 23.0586 65.468 23.0557L65.4688 23.0564C65.4703 23.0577 65.4736 23.0607 65.4796 23.0643Z" fill="white"/>
<path d="M69.3904 8.28493L69.3739 8.31104L69.3732 8.31217L69.3652 8.32483L69.3419 8.36141C69.3219 8.39277 69.2932 8.4376 69.2579 8.49238C69.1873 8.6017 69.0894 8.75177 68.9805 8.91407C68.7784 9.21554 68.4897 9.63351 68.272 9.87411C67.7523 10.4485 66.9402 10.8216 66.393 11.0347C66.0967 11.1501 65.8272 11.2375 65.6317 11.2961C65.5334 11.3255 65.4526 11.3481 65.3948 11.3637C65.3659 11.3715 65.3427 11.3776 65.3259 11.3819L65.3055 11.3871L65.299 11.3887L65.2968 11.3892L65.2955 11.3896L65.2807 11.3932L65.2664 11.3963L65.2652 11.3965L65.259 11.3979L65.2318 11.4039C65.2073 11.4094 65.1702 11.4178 65.1223 11.4289C65.0265 11.4511 64.8878 11.4841 64.7199 11.5265C64.3826 11.6118 63.935 11.7332 63.4836 11.8796C63.0246 12.0285 62.5968 12.1919 62.2821 12.355C62.1498 12.4236 62.0587 12.4814 62.0012 12.5245C62.0038 12.6174 62.0513 12.7951 62.2777 13.1377C62.6127 13.6445 63.1835 14.2843 64.0453 15.2441L64.4799 15.7277C64.5818 15.8413 64.6688 15.9325 64.7519 16.0196L64.7668 16.0353C64.8493 16.1219 64.9453 16.2226 65.033 16.3286C65.2398 16.5786 65.3802 16.8323 65.4981 17.1872C65.6455 17.6312 65.6294 18.1352 65.6062 18.4369C65.5933 18.6058 65.574 18.7539 65.558 18.8602C65.55 18.9137 65.5426 18.9576 65.537 18.9893L65.5353 18.9985L65.4725 19.6124L65.4724 19.6137L65.4717 19.6202L65.4691 19.6482C65.4667 19.6734 65.4632 19.7114 65.459 19.7605C65.4505 19.8587 65.4392 20.0008 65.4278 20.1737C65.405 20.5208 65.3827 20.9844 65.3831 21.46C65.3836 21.9428 65.4077 22.4045 65.4676 22.7601C65.4922 22.9061 65.5195 23.0129 65.5441 23.0851C65.6265 23.0989 65.7938 23.0958 66.1272 23.0049C66.7088 22.8462 67.4913 22.5061 68.6766 21.9863L69.274 21.7251L69.2749 21.7247C69.3137 21.7077 69.3524 21.6906 69.391 21.6735C69.924 21.4377 70.4476 21.2061 71.0234 21.2061C71.5985 21.2061 72.1218 21.4372 72.6549 21.6727C72.6943 21.6901 72.7337 21.7075 72.7733 21.7249L73.369 21.9862C74.5548 22.506 75.3377 22.8462 75.9195 23.005C76.3739 23.1291 76.5197 23.0899 76.5622 23.0674C76.5722 23.0528 76.6006 23.0064 76.6322 22.9029C76.6854 22.7288 76.7216 22.4764 76.7307 22.1433C76.7489 21.477 76.6561 20.666 76.5451 19.8775C76.5341 19.7997 76.5162 19.6927 76.4998 19.5986C76.4918 19.5529 76.4846 19.5128 76.4794 19.4841L76.4733 19.4507L76.4725 19.4459L76.4706 19.4368C76.4684 19.4252 76.4653 19.4095 76.4617 19.3901C76.4546 19.3512 76.4451 19.2972 76.4347 19.231C76.4141 19.0995 76.3893 18.916 76.3727 18.7061C76.3421 18.319 76.3273 17.7167 76.5025 17.1878C76.6832 16.6422 77.0491 16.146 77.3119 15.8292C77.4518 15.6605 77.5821 15.5198 77.678 15.4205C77.7262 15.3706 77.7663 15.3305 77.7956 15.3018C77.8102 15.2875 77.8221 15.2759 77.831 15.2674L78.2737 14.8173C79.0751 13.9234 79.5336 13.2664 79.7781 12.8161C79.8942 12.6023 79.9532 12.451 79.981 12.3557C79.9179 12.2881 79.7755 12.1878 79.4416 12.0625C78.8771 11.8506 78.0433 11.6681 76.7768 11.3955L76.1394 11.258C76.0974 11.249 76.0551 11.24 76.0132 11.2311L76.0125 11.2309L76.0119 11.2308C75.4408 11.1091 74.8838 10.9905 74.4242 10.6587C74.2341 10.5214 74.0507 10.3045 73.9331 10.1609C73.788 9.98376 73.6269 9.77049 73.4693 9.55235C73.1564 9.11928 72.8259 8.62333 72.6272 8.28372C72.4402 7.9643 72.28 7.68609 72.1398 7.44267C71.7762 6.81145 71.5473 6.41414 71.3356 6.13861C71.2054 5.96916 71.1266 5.93334 71.1139 5.92621C71.0708 5.95775 71.0128 6.00561 70.9408 6.07479C70.7255 6.28163 70.4824 6.58343 70.2425 6.92161C70.0074 7.25312 69.7968 7.58894 69.6437 7.84455C69.5677 7.97156 69.5069 8.07696 69.4656 8.14976C69.4449 8.18613 69.4292 8.21426 69.419 8.23277L69.4077 8.25312L69.4053 8.25753L69.3904 8.28493Z" fill="white"/>
<path fill-rule="evenodd" clip-rule="evenodd" d="M101.023 4C100.649 4 100.336 4.13738 100.119 4.26448C99.8948 4.39631 99.6938 4.56424 99.522 4.72924C99.1785 5.05935 98.8545 5.47347 98.5865 5.85122C98.3138 6.23564 98.0759 6.61574 97.9075 6.89708C97.8227 7.03853 97.7545 7.15687 97.7069 7.24067C97.6832 7.28261 97.6645 7.316 97.6515 7.33944L97.6465 7.34846L97.6336 7.3687C97.6153 7.39739 97.5886 7.43916 97.5554 7.49055C97.4889 7.59356 97.3972 7.73408 97.2961 7.88482C97.0784 8.20945 96.866 8.5074 96.7585 8.62613C96.5707 8.83371 96.148 9.06821 95.6374 9.26711C95.4047 9.35772 95.1895 9.42756 95.0325 9.47462C94.9545 9.498 94.8922 9.51537 94.8509 9.52652C94.8304 9.53206 94.8149 9.53608 94.8056 9.53849L94.7766 9.5449C94.7469 9.55153 94.7043 9.56115 94.6506 9.5736C94.5432 9.59846 94.391 9.63471 94.2079 9.68099C93.8435 9.77313 93.3491 9.90697 92.8403 10.072C92.339 10.2345 91.7882 10.4386 91.3277 10.6773C91.0979 10.7964 90.8603 10.9395 90.6556 11.1103C90.4622 11.2716 90.2184 11.5237 90.1033 11.8759C89.826 12.7258 90.1477 13.4927 90.5862 14.1563C91.0097 14.797 91.6806 15.5441 92.4783 16.4325L92.9615 16.9702C93.0836 17.1062 93.1881 17.2158 93.2706 17.3024L93.2875 17.3201C93.3775 17.4146 93.426 17.4666 93.4634 17.5117C93.5067 17.5641 93.5397 17.6078 93.5916 17.764C93.6165 17.839 93.632 18.0318 93.6117 18.2972C93.6028 18.4119 93.5895 18.5149 93.5784 18.5889C93.5729 18.6254 93.5681 18.6539 93.5649 18.6721L93.5615 18.6909L93.5612 18.6924L93.5609 18.6938L93.553 18.7339L93.4818 19.4287L93.4814 19.4328L93.4805 19.4424L93.4772 19.4772C93.4743 19.5071 93.4704 19.55 93.4657 19.6044C93.4564 19.713 93.4441 19.8675 93.4318 20.0541C93.4074 20.4259 93.3827 20.9325 93.3832 21.4617C93.3837 21.9837 93.4085 22.5614 93.4931 23.0634C93.5353 23.3135 93.5974 23.5769 93.6952 23.8179C93.7858 24.0412 93.9492 24.3527 94.2611 24.578C95.024 25.1291 95.9 25.0524 96.6768 24.8405C97.4245 24.6365 98.3483 24.2313 99.4382 23.7532L99.5104 23.7216L100.109 23.46L100.111 23.4591C100.848 23.1349 100.946 23.1152 101.023 23.1152C101.101 23.1152 101.199 23.1352 101.938 23.4595L102.534 23.7211L102.609 23.7538C103.699 24.2316 104.622 24.6365 105.37 24.8405C106.146 25.0525 107.022 25.1296 107.785 24.5788C108.216 24.2674 108.434 23.823 108.552 23.4371C108.672 23.0434 108.719 22.6099 108.73 22.193C108.753 21.3594 108.639 20.4145 108.527 19.6232C108.512 19.514 108.49 19.3823 108.473 19.2845C108.464 19.2343 108.456 19.1902 108.45 19.1586L108.443 19.1211L108.441 19.1078L108.441 19.1065L108.439 19.0969L108.437 19.0882L108.437 19.0873L108.436 19.0842L108.431 19.0585C108.427 19.0342 108.42 18.9965 108.413 18.9483C108.397 18.8512 108.379 18.7153 108.367 18.5624C108.34 18.2241 108.355 17.9276 108.409 17.7635C108.478 17.5568 108.658 17.2813 108.88 17.0144C108.982 16.8912 109.078 16.7871 109.148 16.7145C109.183 16.6785 109.211 16.6509 109.229 16.6333L109.248 16.6149L109.25 16.6126L109.251 16.6118L109.264 16.5995L109.763 16.0925L109.777 16.0762C110.648 15.1073 111.213 14.3217 111.554 13.6947C111.724 13.3808 111.848 13.089 111.921 12.82C111.991 12.5625 112.032 12.2649 111.968 11.9686L111.958 11.9218L111.944 11.8762C111.663 11.0154 110.934 10.5711 110.174 10.2858C109.447 10.0132 108.459 9.8004 107.292 9.54944L106.579 9.3957C105.869 9.24277 105.724 9.1951 105.652 9.15029C105.645 9.14222 105.6 9.09642 105.509 8.98487C105.397 8.84839 105.26 8.66874 105.116 8.46852C104.824 8.06486 104.531 7.62207 104.373 7.35253C104.227 7.10349 104.091 6.86655 103.962 6.64325C103.565 5.95323 103.243 5.39344 102.948 5.00933C102.736 4.73367 102.48 4.46482 102.137 4.27353C101.777 4.07206 101.4 4 101.023 4ZM99.3739 8.31104L99.3904 8.28493L99.4053 8.25753L99.4077 8.25312L99.419 8.23277C99.4292 8.21426 99.4449 8.18613 99.4656 8.14976C99.5069 8.07696 99.5677 7.97156 99.6437 7.84455C99.7968 7.58894 100.007 7.25312 100.243 6.92161C100.482 6.58343 100.726 6.28163 100.941 6.07479C101.018 6.00035 101.08 5.95058 101.123 5.91929C101.121 5.91821 101.119 5.9273 101.114 5.92621C101.105 5.92405 101.168 5.92621 101.114 5.92621C101.111 5.92775 101.119 5.92302 101.114 5.92621C101.114 5.92621 101.141 5.90709 101.123 5.91929C101.125 5.91983 101.113 5.92548 101.114 5.92621C101.127 5.93334 101.205 5.96916 101.336 6.13861C101.547 6.41414 101.776 6.81145 102.14 7.44267C102.28 7.68609 102.44 7.9643 102.627 8.28372C102.826 8.62333 103.156 9.11928 103.469 9.55235C103.627 9.77049 103.788 9.98376 103.933 10.1609C104.051 10.3045 104.234 10.5214 104.424 10.6587C104.884 10.9905 105.441 11.1091 106.012 11.2308L106.013 11.2309L106.013 11.2311C106.055 11.24 106.097 11.249 106.139 11.258L106.777 11.3955C108.043 11.6681 108.877 11.8506 109.442 12.0625C109.775 12.1878 109.918 12.2881 109.981 12.3557C109.953 12.451 109.894 12.6023 109.778 12.8161C109.534 13.2664 109.075 13.9234 108.274 14.8173L107.831 15.2674C107.822 15.2759 107.81 15.2875 107.796 15.3018C107.766 15.3305 107.726 15.3706 107.678 15.4205C107.582 15.5198 107.452 15.6605 107.312 15.8292C107.049 16.146 106.683 16.6422 106.503 17.1878C106.327 17.7167 106.342 18.319 106.373 18.7061C106.389 18.916 106.414 19.0995 106.435 19.231C106.445 19.2972 106.455 19.3512 106.462 19.3901C106.465 19.4095 106.468 19.4252 106.471 19.4368L106.472 19.4459L106.473 19.4507L106.479 19.4841C106.485 19.5128 106.492 19.5529 106.5 19.5986C106.516 19.6927 106.534 19.7997 106.545 19.8775C106.656 20.666 106.749 21.477 106.731 22.1433C106.722 22.4764 106.685 22.7288 106.632 22.9029C106.601 23.0064 106.572 23.0528 106.562 23.0674C106.52 23.0899 106.374 23.1291 105.919 23.005C105.338 22.8462 104.555 22.506 103.369 21.9862L102.773 21.7249C102.734 21.7075 102.694 21.6901 102.655 21.6727C102.122 21.4372 101.599 21.2061 101.023 21.2061C100.448 21.2061 99.924 21.4377 99.391 21.6735C99.3524 21.6906 99.3137 21.7077 99.2749 21.7247L99.274 21.7251L98.6766 21.9863C97.4913 22.5061 96.7088 22.8462 96.1272 23.0049C95.7938 23.0958 95.6265 23.0989 95.5441 23.0851C95.5195 23.0129 95.4922 22.9061 95.4676 22.7601C95.4077 22.4045 95.3836 21.9428 95.3831 21.46C95.3827 20.9844 95.405 20.5208 95.4278 20.1737C95.4392 20.0008 95.4505 19.8587 95.459 19.7605C95.4632 19.7114 95.4667 19.6734 95.4691 19.6482L95.4717 19.6202L95.4724 19.6137L95.4725 19.6124L95.5353 18.9985L95.537 18.9893C95.5426 18.9576 95.55 18.9137 95.558 18.8602C95.574 18.7539 95.5933 18.6058 95.6062 18.4369C95.6294 18.1352 95.6455 17.6312 95.4981 17.1872C95.3802 16.8323 95.2398 16.5786 95.033 16.3286C94.9453 16.2226 94.8493 16.1219 94.7668 16.0353L94.7519 16.0196C94.6688 15.9325 94.5818 15.8413 94.4799 15.7277L94.0453 15.2441C93.1835 14.2843 92.6127 13.6445 92.2777 13.1377C92.0513 12.7951 92.0038 12.6174 92.0012 12.5245C92.0587 12.4814 92.1498 12.4236 92.2821 12.355C92.5968 12.1919 93.0246 12.0285 93.4836 11.8796C93.935 11.7332 94.3826 11.6118 94.7199 11.5265C94.8878 11.4841 95.0265 11.4511 95.1223 11.4289C95.1702 11.4178 95.2073 11.4094 95.2318 11.4039L95.259 11.3979L95.2652 11.3965L95.2664 11.3963L95.2807 11.3932L95.2955 11.3896L95.2968 11.3892L95.299 11.3887L95.3055 11.3871L95.3259 11.3819C95.3427 11.3776 95.3659 11.3715 95.3948 11.3637C95.4526 11.3481 95.5334 11.3255 95.6317 11.2961C95.8272 11.2375 96.0967 11.1501 96.393 11.0347C96.9402 10.8216 97.7523 10.4485 98.272 9.87411C98.4897 9.63351 98.7784 9.21554 98.9805 8.91407C99.0894 8.75177 99.1873 8.6017 99.2579 8.49238C99.2932 8.4376 99.3219 8.39277 99.3419 8.36141L99.3652 8.32483L99.3732 8.31217L99.3739 8.31104ZM106.577 23.0571C106.576 23.0582 106.573 23.0608 106.568 23.064C106.571 23.0618 106.574 23.0598 106.577 23.0571ZM95.4796 23.0643C95.4759 23.0614 95.472 23.0586 95.468 23.0557L95.4688 23.0564C95.4703 23.0577 95.4736 23.0607 95.4796 23.0643Z" fill="white"/>
<path d="M99.3904 8.28493L99.3739 8.31104L99.3732 8.31217L99.3652 8.32483L99.3419 8.36141C99.3219 8.39277 99.2932 8.4376 99.2579 8.49238C99.1873 8.6017 99.0894 8.75177 98.9805 8.91407C98.7784 9.21554 98.4897 9.63351 98.272 9.87411C97.7523 10.4485 96.9402 10.8216 96.393 11.0347C96.0967 11.1501 95.8272 11.2375 95.6317 11.2961C95.5334 11.3255 95.4526 11.3481 95.3948 11.3637C95.3659 11.3715 95.3427 11.3776 95.3259 11.3819L95.3055 11.3871L95.299 11.3887L95.2968 11.3892L95.2955 11.3896L95.2807 11.3932L95.2664 11.3963L95.2652 11.3965L95.259 11.3979L95.2318 11.4039C95.2073 11.4094 95.1702 11.4178 95.1223 11.4289C95.0265 11.4511 94.8878 11.4841 94.7199 11.5265C94.3826 11.6118 93.935 11.7332 93.4836 11.8796C93.0246 12.0285 92.5968 12.1919 92.2821 12.355C92.1498 12.4236 92.0587 12.4814 92.0012 12.5245C92.0038 12.6174 92.0513 12.7951 92.2777 13.1377C92.6127 13.6445 93.1835 14.2843 94.0453 15.2441L94.4799 15.7277C94.5818 15.8413 94.6688 15.9325 94.7519 16.0196L94.7668 16.0353C94.8493 16.1219 94.9453 16.2226 95.033 16.3286C95.2398 16.5786 95.3802 16.8323 95.4981 17.1872C95.6455 17.6312 95.6294 18.1352 95.6062 18.4369C95.5933 18.6058 95.574 18.7539 95.558 18.8602C95.55 18.9137 95.5426 18.9576 95.537 18.9893L95.5353 18.9985L95.4725 19.6124L95.4724 19.6137L95.4717 19.6202L95.4691 19.6482C95.4667 19.6734 95.4632 19.7114 95.459 19.7605C95.4505 19.8587 95.4392 20.0008 95.4278 20.1737C95.405 20.5208 95.3827 20.9844 95.3831 21.46C95.3836 21.9428 95.4077 22.4045 95.4676 22.7601C95.4922 22.9061 95.5195 23.0129 95.5441 23.0851C95.6265 23.0989 95.7938 23.0958 96.1272 23.0049C96.7088 22.8462 97.4913 22.5061 98.6766 21.9863L99.274 21.7251L99.2749 21.7247C99.3137 21.7077 99.3524 21.6906 99.391 21.6735C99.924 21.4377 100.448 21.2061 101.023 21.2061C101.599 21.2061 102.122 21.4372 102.655 21.6727C102.694 21.6901 102.734 21.7075 102.773 21.7249L103.369 21.9862C104.555 22.506 105.338 22.8462 105.919 23.005C106.374 23.1291 106.52 23.0899 106.562 23.0674C106.572 23.0528 106.601 23.0064 106.632 22.9029C106.685 22.7288 106.722 22.4764 106.731 22.1433C106.749 21.477 106.656 20.666 106.545 19.8775C106.534 19.7997 106.516 19.6927 106.5 19.5986C106.492 19.5529 106.485 19.5128 106.479 19.4841L106.473 19.4507L106.472 19.4459L106.471 19.4368C106.468 19.4252 106.465 19.4095 106.462 19.3901C106.455 19.3512 106.445 19.2972 106.435 19.231C106.414 19.0995 106.389 18.916 106.373 18.7061C106.342 18.319 106.327 17.7167 106.503 17.1878C106.683 16.6422 107.049 16.146 107.312 15.8292C107.452 15.6605 107.582 15.5198 107.678 15.4205C107.726 15.3706 107.766 15.3305 107.796 15.3018C107.81 15.2875 107.822 15.2759 107.831 15.2674L108.274 14.8173C109.075 13.9234 109.534 13.2664 109.778 12.8161C109.894 12.6023 109.953 12.451 109.981 12.3557C109.918 12.2881 109.775 12.1878 109.442 12.0625C108.877 11.8506 108.043 11.6681 106.777 11.3955L106.139 11.258C106.097 11.249 106.055 11.24 106.013 11.2311L106.013 11.2309L106.012 11.2308C105.441 11.1091 104.884 10.9905 104.424 10.6587C104.234 10.5214 104.051 10.3045 103.933 10.1609C103.788 9.98376 103.627 9.77049 103.469 9.55235C103.156 9.11928 102.826 8.62333 102.627 8.28372C102.44 7.9643 102.28 7.68609 102.14 7.44267C101.776 6.81145 101.547 6.41414 101.336 6.13861C101.205 5.96916 101.127 5.93334 101.114 5.92621C101.071 5.95775 101.013 6.00561 100.941 6.07479C100.726 6.28163 100.482 6.58343 100.243 6.92161C100.007 7.25312 99.7968 7.58894 99.6437 7.84455C99.5677 7.97156 99.5069 8.07696 99.4656 8.14976C99.4449 8.18613 99.4292 8.21426 99.419 8.23277L99.4077 8.25312L99.4053 8.25753L99.3904 8.28493Z" fill="white"/>
<path fill-rule="evenodd" clip-rule="evenodd" d="M131.023 4C130.649 4 130.336 4.13738 130.119 4.26448C129.895 4.39631 129.694 4.56424 129.522 4.72924C129.178 5.05935 128.854 5.47347 128.587 5.85122C128.314 6.23564 128.076 6.61574 127.907 6.89708C127.823 7.03853 127.754 7.15687 127.707 7.24067C127.683 7.28261 127.664 7.316 127.651 7.33944L127.647 7.34846L127.634 7.3687C127.615 7.39739 127.589 7.43916 127.555 7.49055C127.489 7.59356 127.397 7.73408 127.296 7.88482C127.078 8.20945 126.866 8.5074 126.759 8.62613C126.571 8.83371 126.148 9.06821 125.637 9.26711C125.405 9.35772 125.19 9.42756 125.033 9.47462C124.955 9.498 124.892 9.51537 124.851 9.52652C124.83 9.53206 124.815 9.53608 124.806 9.53849L124.777 9.5449C124.747 9.55153 124.704 9.56115 124.651 9.5736C124.543 9.59846 124.391 9.63471 124.208 9.68099C123.843 9.77313 123.349 9.90697 122.84 10.072C122.339 10.2345 121.788 10.4386 121.328 10.6773C121.098 10.7964 120.86 10.9395 120.656 11.1103C120.462 11.2716 120.218 11.5237 120.103 11.8759C119.826 12.7258 120.148 13.4927 120.586 14.1563C121.01 14.797 121.681 15.5441 122.478 16.4325L122.962 16.9702C123.084 17.1062 123.188 17.2158 123.271 17.3024L123.287 17.3201C123.378 17.4146 123.426 17.4666 123.463 17.5117C123.507 17.5641 123.54 17.6078 123.592 17.764C123.616 17.839 123.632 18.0318 123.612 18.2972C123.603 18.4119 123.59 18.5149 123.578 18.5889C123.573 18.6254 123.568 18.6539 123.565 18.6721L123.561 18.6909L123.561 18.6924L123.561 18.6938L123.553 18.7339L123.482 19.4287L123.481 19.4328L123.48 19.4424L123.477 19.4772C123.474 19.5071 123.47 19.55 123.466 19.6044C123.456 19.713 123.444 19.8675 123.432 20.0541C123.407 20.4259 123.383 20.9325 123.383 21.4617C123.384 21.9837 123.408 22.5614 123.493 23.0634C123.535 23.3135 123.597 23.5769 123.695 23.8179C123.786 24.0412 123.949 24.3527 124.261 24.578C125.024 25.1291 125.9 25.0524 126.677 24.8405C127.425 24.6365 128.348 24.2313 129.438 23.7532L129.51 23.7216L130.109 23.46L130.111 23.4591C130.848 23.1349 130.946 23.1152 131.023 23.1152C131.101 23.1152 131.199 23.1352 131.938 23.4595L132.534 23.7211L132.609 23.7538C133.699 24.2316 134.622 24.6365 135.37 24.8405C136.146 25.0525 137.022 25.1296 137.785 24.5788C138.216 24.2674 138.434 23.823 138.552 23.4371C138.672 23.0434 138.719 22.6099 138.73 22.193C138.753 21.3594 138.639 20.4145 138.527 19.6232C138.512 19.514 138.49 19.3823 138.473 19.2845C138.464 19.2343 138.456 19.1902 138.45 19.1586L138.443 19.1211L138.441 19.1078L138.441 19.1065L138.439 19.0969L138.437 19.0882L138.437 19.0873L138.436 19.0842L138.431 19.0585C138.427 19.0342 138.42 18.9965 138.413 18.9483C138.397 18.8512 138.379 18.7153 138.367 18.5624C138.34 18.2241 138.355 17.9276 138.409 17.7635C138.478 17.5568 138.658 17.2813 138.88 17.0144C138.982 16.8912 139.078 16.7871 139.148 16.7145C139.183 16.6785 139.211 16.6509 139.229 16.6333L139.248 16.6149L139.25 16.6126L139.251 16.6118L139.264 16.5995L139.763 16.0925L139.777 16.0762C140.648 15.1073 141.213 14.3217 141.554 13.6947C141.724 13.3808 141.848 13.089 141.921 12.82C141.991 12.5625 142.032 12.2649 141.968 11.9686L141.958 11.9218L141.944 11.8762C141.663 11.0154 140.934 10.5711 140.174 10.2858C139.447 10.0132 138.459 9.8004 137.292 9.54944L136.579 9.3957C135.869 9.24277 135.724 9.1951 135.652 9.15029C135.645 9.14222 135.6 9.09642 135.509 8.98487C135.397 8.84839 135.26 8.66874 135.116 8.46852C134.824 8.06486 134.531 7.62207 134.373 7.35253C134.227 7.10349 134.091 6.86655 133.962 6.64325C133.565 5.95323 133.243 5.39344 132.948 5.00933C132.736 4.73367 132.48 4.46482 132.137 4.27353C131.777 4.07206 131.4 4 131.023 4ZM129.374 8.31104L129.39 8.28493L129.405 8.25753L129.408 8.25312L129.419 8.23277C129.429 8.21426 129.445 8.18613 129.466 8.14976C129.507 8.07696 129.568 7.97156 129.644 7.84455C129.797 7.58894 130.007 7.25312 130.243 6.92161C130.482 6.58343 130.726 6.28163 130.941 6.07479C131.018 6.00035 131.08 5.95058 131.123 5.91929C131.121 5.91821 131.119 5.9273 131.114 5.92621C131.105 5.92405 131.168 5.92621 131.114 5.92621C131.111 5.92775 131.119 5.92302 131.114 5.92621C131.114 5.92621 131.141 5.90709 131.123 5.91929C131.125 5.91983 131.113 5.92548 131.114 5.92621C131.127 5.93334 131.205 5.96916 131.336 6.13861C131.547 6.41414 131.776 6.81145 132.14 7.44267C132.28 7.68609 132.44 7.9643 132.627 8.28372C132.826 8.62333 133.156 9.11928 133.469 9.55235C133.627 9.77049 133.788 9.98376 133.933 10.1609C134.051 10.3045 134.234 10.5214 134.424 10.6587C134.884 10.9905 135.441 11.1091 136.012 11.2308L136.013 11.2309L136.013 11.2311C136.055 11.24 136.097 11.249 136.139 11.258L136.777 11.3955C138.043 11.6681 138.877 11.8506 139.442 12.0625C139.775 12.1878 139.918 12.2881 139.981 12.3557C139.953 12.451 139.894 12.6023 139.778 12.8161C139.534 13.2664 139.075 13.9234 138.274 14.8173L137.831 15.2674C137.822 15.2759 137.81 15.2875 137.796 15.3018C137.766 15.3305 137.726 15.3706 137.678 15.4205C137.582 15.5198 137.452 15.6605 137.312 15.8292C137.049 16.146 136.683 16.6422 136.503 17.1878C136.327 17.7167 136.342 18.319 136.373 18.7061C136.389 18.916 136.414 19.0995 136.435 19.231C136.445 19.2972 136.455 19.3512 136.462 19.3901C136.465 19.4095 136.468 19.4252 136.471 19.4368L136.472 19.4459L136.473 19.4507L136.479 19.4841C136.485 19.5128 136.492 19.5529 136.5 19.5986C136.516 19.6927 136.534 19.7997 136.545 19.8775C136.656 20.666 136.749 21.477 136.731 22.1433C136.722 22.4764 136.685 22.7288 136.632 22.9029C136.601 23.0064 136.572 23.0528 136.562 23.0674C136.52 23.0899 136.374 23.1291 135.919 23.005C135.338 22.8462 134.555 22.506 133.369 21.9862L132.773 21.7249C132.734 21.7075 132.694 21.6901 132.655 21.6727C132.122 21.4372 131.599 21.2061 131.023 21.2061C130.448 21.2061 129.924 21.4377 129.391 21.6735C129.352 21.6906 129.314 21.7077 129.275 21.7247L129.274 21.7251L128.677 21.9863C127.491 22.5061 126.709 22.8462 126.127 23.0049C125.794 23.0958 125.626 23.0989 125.544 23.0851C125.52 23.0129 125.492 22.9061 125.468 22.7601C125.408 22.4045 125.384 21.9428 125.383 21.46C125.383 20.9844 125.405 20.5208 125.428 20.1737C125.439 20.0008 125.451 19.8587 125.459 19.7605C125.463 19.7114 125.467 19.6734 125.469 19.6482L125.472 19.6202L125.472 19.6137L125.473 19.6124L125.535 18.9985L125.537 18.9893C125.543 18.9576 125.55 18.9137 125.558 18.8602C125.574 18.7539 125.593 18.6058 125.606 18.4369C125.629 18.1352 125.645 17.6312 125.498 17.1872C125.38 16.8323 125.24 16.5786 125.033 16.3286C124.945 16.2226 124.849 16.1219 124.767 16.0353L124.752 16.0196C124.669 15.9325 124.582 15.8413 124.48 15.7277L124.045 15.2441C123.183 14.2843 122.613 13.6445 122.278 13.1377C122.051 12.7951 122.004 12.6174 122.001 12.5245C122.059 12.4814 122.15 12.4236 122.282 12.355C122.597 12.1919 123.025 12.0285 123.484 11.8796C123.935 11.7332 124.383 11.6118 124.72 11.5265C124.888 11.4841 125.026 11.4511 125.122 11.4289C125.17 11.4178 125.207 11.4094 125.232 11.4039L125.259 11.3979L125.265 11.3965L125.266 11.3963L125.281 11.3932L125.295 11.3896L125.297 11.3892L125.299 11.3887L125.305 11.3871L125.326 11.3819C125.343 11.3776 125.366 11.3715 125.395 11.3637C125.453 11.3481 125.533 11.3255 125.632 11.2961C125.827 11.2375 126.097 11.1501 126.393 11.0347C126.94 10.8216 127.752 10.4485 128.272 9.87411C128.49 9.63351 128.778 9.21554 128.981 8.91407C129.089 8.75177 129.187 8.6017 129.258 8.49238C129.293 8.4376 129.322 8.39277 129.342 8.36141L129.365 8.32483L129.373 8.31217L129.374 8.31104ZM136.577 23.0571C136.576 23.0582 136.573 23.0608 136.568 23.064C136.571 23.0618 136.574 23.0598 136.577 23.0571ZM125.48 23.0643C125.476 23.0614 125.472 23.0586 125.468 23.0557L125.469 23.0564C125.47 23.0577 125.474 23.0607 125.48 23.0643Z" fill="white"/>
<path d="M129.39 8.28493L129.374 8.31104L129.373 8.31217L129.365 8.32483L129.342 8.36141C129.322 8.39277 129.293 8.4376 129.258 8.49238C129.187 8.6017 129.089 8.75177 128.981 8.91407C128.778 9.21554 128.49 9.63351 128.272 9.87411C127.752 10.4485 126.94 10.8216 126.393 11.0347C126.097 11.1501 125.827 11.2375 125.632 11.2961C125.533 11.3255 125.453 11.3481 125.395 11.3637C125.366 11.3715 125.343 11.3776 125.326 11.3819L125.305 11.3871L125.299 11.3887L125.297 11.3892L125.295 11.3896L125.281 11.3932L125.266 11.3963L125.265 11.3965L125.259 11.3979L125.232 11.4039C125.207 11.4094 125.17 11.4178 125.122 11.4289C125.026 11.4511 124.888 11.4841 124.72 11.5265C124.383 11.6118 123.935 11.7332 123.484 11.8796C123.025 12.0285 122.597 12.1919 122.282 12.355C122.15 12.4236 122.059 12.4814 122.001 12.5245C122.004 12.6174 122.051 12.7951 122.278 13.1377C122.613 13.6445 123.183 14.2843 124.045 15.2441L124.48 15.7277C124.582 15.8413 124.669 15.9325 124.752 16.0196L124.767 16.0353C124.849 16.1219 124.945 16.2226 125.033 16.3286C125.24 16.5786 125.38 16.8323 125.498 17.1872C125.645 17.6312 125.629 18.1352 125.606 18.4369C125.593 18.6058 125.574 18.7539 125.558 18.8602C125.55 18.9137 125.543 18.9576 125.537 18.9893L125.535 18.9985L125.473 19.6124L125.472 19.6137L125.472 19.6202L125.469 19.6482C125.467 19.6734 125.463 19.7114 125.459 19.7605C125.451 19.8587 125.439 20.0008 125.428 20.1737C125.405 20.5208 125.383 20.9844 125.383 21.46C125.384 21.9428 125.408 22.4045 125.468 22.7601C125.492 22.9061 125.52 23.0129 125.544 23.0851C125.626 23.0989 125.794 23.0958 126.127 23.0049C126.709 22.8462 127.491 22.5061 128.677 21.9863L129.274 21.7251L129.275 21.7247C129.314 21.7077 129.352 21.6906 129.391 21.6735C129.924 21.4377 130.448 21.2061 131.023 21.2061C131.599 21.2061 132.122 21.4372 132.655 21.6727C132.694 21.6901 132.734 21.7075 132.773 21.7249L133.369 21.9862C134.555 22.506 135.338 22.8462 135.919 23.005C136.374 23.1291 136.52 23.0899 136.562 23.0674C136.572 23.0528 136.601 23.0064 136.632 22.9029C136.685 22.7288 136.722 22.4764 136.731 22.1433C136.749 21.477 136.656 20.666 136.545 19.8775C136.534 19.7997 136.516 19.6927 136.5 19.5986C136.492 19.5529 136.485 19.5128 136.479 19.4841L136.473 19.4507L136.472 19.4459L136.471 19.4368C136.468 19.4252 136.465 19.4095 136.462 19.3901C136.455 19.3512 136.445 19.2972 136.435 19.231C136.414 19.0995 136.389 18.916 136.373 18.7061C136.342 18.319 136.327 17.7167 136.503 17.1878C136.683 16.6422 137.049 16.146 137.312 15.8292C137.452 15.6605 137.582 15.5198 137.678 15.4205C137.726 15.3706 137.766 15.3305 137.796 15.3018C137.81 15.2875 137.822 15.2759 137.831 15.2674L138.274 14.8173C139.075 13.9234 139.534 13.2664 139.778 12.8161C139.894 12.6023 139.953 12.451 139.981 12.3557C139.918 12.2881 139.775 12.1878 139.442 12.0625C138.877 11.8506 138.043 11.6681 136.777 11.3955L136.139 11.258C136.097 11.249 136.055 11.24 136.013 11.2311L136.013 11.2309L136.012 11.2308C135.441 11.1091 134.884 10.9905 134.424 10.6587C134.234 10.5214 134.051 10.3045 133.933 10.1609C133.788 9.98376 133.627 9.77049 133.469 9.55235C133.156 9.11928 132.826 8.62333 132.627 8.28372C132.44 7.9643 132.28 7.68609 132.14 7.44267C131.776 6.81145 131.547 6.41414 131.336 6.13861C131.205 5.96916 131.127 5.93334 131.114 5.92621C131.071 5.95775 131.013 6.00561 130.941 6.07479C130.726 6.28163 130.482 6.58343 130.243 6.92161C130.007 7.25312 129.797 7.58894 129.644 7.84455C129.568 7.97156 129.507 8.07696 129.466 8.14976C129.445 8.18613 129.429 8.21426 129.419 8.23277L129.408 8.25312L129.405 8.25753L129.39 8.28493Z" fill="white"/>
</svg>
