<svg width="142" height="29" viewBox="0 0 142 29" fill="none" xmlns="http://www.w3.org/2000/svg">
<path fill-rule="evenodd" clip-rule="evenodd" d="M11.0234 4.00013C10.6485 4.00013 10.3359 4.13751 10.1194 4.2646C9.8948 4.39643 9.69374 4.56436 9.52201 4.72937C9.17845 5.05948 8.85443 5.4736 8.58649 5.85134C8.31381 6.23576 8.07591 6.61586 7.90743 6.8972C7.82272 7.03866 7.75446 7.15699 7.70692 7.2408C7.68313 7.28273 7.66447 7.31613 7.65147 7.33957L7.64649 7.34858L7.63361 7.36883C7.61531 7.39752 7.58858 7.43929 7.55539 7.49067C7.48887 7.59369 7.39718 7.7342 7.2961 7.88495C7.07841 8.20958 6.86594 8.50753 6.75851 8.62625C6.57067 8.83384 6.14794 9.06833 5.63733 9.26723C5.4047 9.35785 5.1895 9.42769 5.03251 9.47475C4.95452 9.49812 4.8922 9.51549 4.85084 9.52665C4.83034 9.53218 4.81489 9.53621 4.80554 9.53862L4.77654 9.54503C4.74684 9.55166 4.70426 9.56128 4.65056 9.57372C4.54322 9.59859 4.39099 9.63484 4.20792 9.68112C3.84345 9.77326 3.34906 9.90709 2.84028 10.0721C2.33898 10.2346 1.78822 10.4387 1.32769 10.6774C1.09793 10.7965 0.860305 10.9397 0.655588 11.1104C0.462203 11.2718 0.21838 11.5238 0.103228 11.876C-0.173987 12.726 0.147675 13.4929 0.586226 14.1564C1.00965 14.7971 1.68055 15.5443 2.47823 16.4326L2.9615 16.9703C3.08356 17.1064 3.18805 17.2159 3.27059 17.3025L3.28745 17.3202C3.37752 17.4147 3.426 17.4667 3.46338 17.5119C3.50672 17.5643 3.53971 17.6079 3.59157 17.7641C3.61645 17.8391 3.63203 18.0319 3.61163 18.2974C3.60282 18.412 3.58951 18.515 3.57838 18.589C3.57287 18.6256 3.56806 18.6541 3.56486 18.6722L3.56144 18.691L3.56116 18.6925L3.5609 18.6939L3.55294 18.7341L3.48183 19.4288L3.48142 19.4329L3.48047 19.4425L3.47713 19.4773C3.47432 19.5072 3.47039 19.5501 3.46572 19.6045C3.45638 19.7131 3.44406 19.8676 3.43179 20.0543C3.40736 20.4261 3.38268 20.9326 3.38317 21.4618C3.38366 21.9838 3.40845 22.5616 3.49307 23.0635C3.53523 23.3136 3.59736 23.577 3.69515 23.818C3.78576 24.0413 3.94919 24.3528 4.26111 24.5781C5.02393 25.1292 5.89993 25.0526 6.6768 24.8406C7.4245 24.6366 8.34829 24.2314 9.43822 23.7533L9.51035 23.7217L10.1087 23.4601L10.1108 23.4592C10.8479 23.135 10.9457 23.1153 11.0234 23.1153C11.1012 23.1153 11.1993 23.1353 11.9379 23.4596L12.5344 23.7213L12.6089 23.7539C13.6988 24.2318 14.6223 24.6367 15.3695 24.8407C16.1457 25.0526 17.0221 25.1297 17.7848 24.579C18.2157 24.2675 18.4344 23.8232 18.5522 23.4372C18.6724 23.0435 18.7186 22.61 18.7299 22.1931C18.7527 21.3595 18.6386 20.4146 18.5272 19.6233C18.5118 19.5141 18.4896 19.3825 18.4725 19.2847C18.4637 19.2344 18.4558 19.1903 18.4501 19.1587L18.4432 19.1212L18.4408 19.1079L18.4405 19.1067L18.4387 19.097L18.4369 19.0883L18.4367 19.0874L18.4362 19.0843L18.4313 19.0586C18.4268 19.0343 18.4201 18.9967 18.4126 18.9485C18.3973 18.8513 18.379 18.7154 18.3669 18.5625C18.3402 18.2242 18.355 17.9277 18.4093 17.7636C18.4778 17.5569 18.6584 17.2814 18.8798 17.0145C18.982 16.8913 19.0782 16.7872 19.1484 16.7146C19.1832 16.6786 19.2108 16.651 19.2287 16.6335L19.2477 16.615L19.2501 16.6128L19.251 16.6119L19.2641 16.5996L19.7627 16.0926L19.7774 16.0763C20.6477 15.1075 21.2132 14.3218 21.5537 13.6948C21.724 13.381 21.8478 13.0891 21.9211 12.8202C21.9912 12.5627 22.0319 12.265 21.9684 11.9687L21.9584 11.9219L21.9436 11.8763C21.6631 11.0155 20.9336 10.5713 20.1735 10.286C19.4472 10.0133 18.4585 9.80053 17.2924 9.54957L16.5793 9.39582C15.869 9.2429 15.7244 9.19522 15.6518 9.15042C15.6455 9.14235 15.5999 9.09655 15.5085 8.98499C15.3967 8.84852 15.2603 8.66886 15.1157 8.46864C14.8241 8.06499 14.5308 7.62219 14.3731 7.35265C14.2273 7.10362 14.091 6.86668 13.9625 6.64338C13.5654 5.95335 13.2433 5.39357 12.9481 5.00945C12.7363 4.7338 12.4797 4.46494 12.1373 4.27365C11.7767 4.07218 11.4 4.00013 11.0234 4.00013ZM9.37392 8.31116L9.3904 8.28505L9.4053 8.25766L9.40771 8.25324L9.41895 8.2329C9.42922 8.21438 9.44493 8.18626 9.46556 8.14989C9.50686 8.07708 9.56763 7.97169 9.6437 7.84467C9.79676 7.58907 10.0074 7.25324 10.2425 6.92174C10.4824 6.58355 10.7255 6.28175 10.9408 6.07491C11.0183 6.00047 11.0795 5.95071 11.1234 5.91942C11.1211 5.91833 11.1186 5.92743 11.1139 5.92634C11.1045 5.92417 11.1683 5.92634 11.1139 5.92634C11.1109 5.92788 11.1193 5.92314 11.1139 5.92634C11.1139 5.92634 11.1406 5.90721 11.1234 5.91942C11.1246 5.91996 11.1125 5.9256 11.1139 5.92634C11.1266 5.93347 11.2053 5.96929 11.3356 6.13874C11.5473 6.41427 11.7762 6.81157 12.1397 7.4428C12.2799 7.68622 12.4402 7.96442 12.6272 8.28384C12.8259 8.62345 13.1564 9.1194 13.4693 9.55247C13.6269 9.77062 13.7879 9.98389 13.933 10.161C14.0507 10.3046 14.2341 10.5216 14.4242 10.6588C14.8838 10.9906 15.4408 11.1093 16.0118 11.2309L16.0125 11.2311C16.0546 11.24 16.0971 11.2491 16.1393 11.2582L16.7768 11.3956C18.0433 11.6683 18.8771 11.8507 19.4416 12.0626C19.7754 12.188 19.9179 12.2882 19.981 12.3558C19.9532 12.4512 19.8942 12.6024 19.778 12.8163C19.5336 13.2665 19.0751 13.9236 18.2737 14.8174L17.831 15.2676C17.8221 15.2761 17.8102 15.2876 17.7955 15.3019C17.7663 15.3306 17.7261 15.3707 17.6779 15.4206C17.5821 15.5199 17.4518 15.6607 17.3119 15.8293C17.0491 16.1461 16.6832 16.6424 16.5025 17.1879C16.3272 17.7169 16.342 18.3191 16.3727 18.7063C16.3893 18.9161 16.414 19.0996 16.4347 19.2312C16.445 19.2973 16.4545 19.3514 16.4617 19.3902C16.4653 19.4096 16.4683 19.4253 16.4706 19.4369L16.4724 19.4461L16.4733 19.4509L16.4794 19.4842C16.4846 19.5129 16.4918 19.5531 16.4998 19.5987C16.5162 19.6928 16.5341 19.7998 16.5451 19.8776C16.6561 20.6661 16.7489 21.4771 16.7307 22.1434C16.7216 22.4765 16.6854 22.7289 16.6322 22.9031C16.6006 23.0065 16.5722 23.0529 16.5622 23.0675C16.5197 23.09 16.3739 23.1292 15.9195 23.0052C15.3376 22.8463 14.5548 22.5062 13.369 21.9863L12.7733 21.725C12.7337 21.7077 12.6942 21.6902 12.6548 21.6728C12.1218 21.4374 11.5985 21.2062 11.0234 21.2062C10.4475 21.2062 9.924 21.4378 9.391 21.6736C9.35236 21.6907 9.31367 21.7078 9.2749 21.7248L9.27393 21.7253L8.67656 21.9864C7.49123 22.5062 6.70879 22.8463 6.12716 23.005C5.79379 23.096 5.62647 23.099 5.54407 23.0852C5.51948 23.013 5.49223 22.9062 5.46761 22.7602C5.40766 22.4046 5.38356 21.9429 5.38311 21.4601C5.38266 20.9845 5.40499 20.5209 5.4278 20.1738C5.43916 20.001 5.45052 19.8588 5.45896 19.7606C5.46317 19.7115 5.46665 19.6735 5.46903 19.6483L5.47172 19.6203L5.47235 19.6139L5.47249 19.6125L5.53532 18.9986L5.53699 18.9895C5.54259 18.9577 5.54997 18.9138 5.55802 18.8603C5.574 18.7541 5.59324 18.6059 5.60621 18.437C5.62939 18.1354 5.64547 17.6314 5.49806 17.1874C5.38022 16.8324 5.23982 16.5788 5.03293 16.3287C4.9453 16.2227 4.84928 16.122 4.76674 16.0354L4.75183 16.0198C4.66875 15.9326 4.5818 15.8414 4.47989 15.7278L4.04523 15.2442C3.18344 14.2844 2.61268 13.6447 2.27769 13.1378C2.05127 12.7952 2.00379 12.6175 2.00119 12.5247C2.05869 12.4815 2.14976 12.4237 2.2821 12.3551C2.59678 12.192 3.02461 12.0286 3.48356 11.8798C3.93502 11.7334 4.38254 11.6119 4.71991 11.5266C4.88777 11.4842 5.02644 11.4512 5.12228 11.429C5.17016 11.4179 5.20724 11.4095 5.2318 11.404L5.259 11.398L5.26514 11.3967L5.26634 11.3964L5.28065 11.3933L5.29546 11.3897L5.29673 11.3894L5.29899 11.3888L5.30545 11.3872L5.32583 11.382C5.34266 11.3777 5.36588 11.3716 5.39479 11.3638C5.45256 11.3482 5.53341 11.3256 5.63166 11.2962C5.82714 11.2376 6.09665 11.1503 6.39294 11.0349C6.9402 10.8217 7.75223 10.4486 8.27198 9.87424C8.48969 9.63364 8.77835 9.21567 8.9805 8.9142C9.08933 8.7519 9.18725 8.60182 9.25784 8.4925C9.29321 8.43773 9.32192 8.3929 9.34192 8.36153L9.36518 8.32496L9.37321 8.31229L9.37392 8.31116ZM16.5772 23.0572C16.576 23.0584 16.5732 23.0609 16.5682 23.0641C16.5707 23.062 16.5735 23.0599 16.5772 23.0572ZM5.47961 23.0644C5.47585 23.0616 5.47197 23.0587 5.46796 23.0558L5.46879 23.0565C5.47029 23.0579 5.47356 23.0608 5.47961 23.0644Z" fill="white"/>
<path fill-rule="evenodd" clip-rule="evenodd" d="M41.0234 4.00013C40.6485 4.00013 40.3359 4.13751 40.1194 4.2646C39.8948 4.39643 39.6937 4.56436 39.522 4.72937C39.1784 5.05948 38.8544 5.4736 38.5865 5.85134C38.3138 6.23576 38.0759 6.61586 37.9074 6.8972C37.8227 7.03866 37.7545 7.15699 37.7069 7.2408C37.6831 7.28273 37.6645 7.31613 37.6515 7.33957L37.6465 7.34858L37.6336 7.36883C37.6153 7.39752 37.5886 7.43929 37.5554 7.49067C37.4889 7.59369 37.3972 7.7342 37.2961 7.88495C37.0784 8.20958 36.8659 8.50753 36.7585 8.62625C36.5707 8.83384 36.1479 9.06833 35.6373 9.26723C35.4047 9.35785 35.1895 9.42769 35.0325 9.47475C34.9545 9.49812 34.8922 9.51549 34.8508 9.52665C34.8303 9.53218 34.8149 9.53621 34.8055 9.53862L34.7765 9.54503C34.7468 9.55166 34.7043 9.56128 34.6506 9.57372C34.5432 9.59859 34.391 9.63484 34.2079 9.68112C33.8435 9.77326 33.3491 9.90709 32.8403 10.0721C32.339 10.2346 31.7882 10.4387 31.3277 10.6774C31.0979 10.7965 30.8603 10.9397 30.6556 11.1104C30.4622 11.2718 30.2184 11.5238 30.1032 11.876C29.826 12.726 30.1477 13.4929 30.5862 14.1564C31.0096 14.7971 31.6806 15.5443 32.4782 16.4326L32.9615 16.9703C33.0836 17.1064 33.188 17.2159 33.2706 17.3025L33.2874 17.3202C33.3775 17.4147 33.426 17.4667 33.4634 17.5119C33.5067 17.5643 33.5397 17.6079 33.5916 17.7641C33.6165 17.8391 33.632 18.0319 33.6116 18.2974C33.6028 18.412 33.5895 18.515 33.5784 18.589C33.5729 18.6256 33.5681 18.6541 33.5649 18.6722L33.5614 18.691L33.5612 18.6925L33.5609 18.6939L33.5529 18.7341L33.4818 19.4288L33.4814 19.4329L33.4805 19.4425L33.4771 19.4773C33.4743 19.5072 33.4704 19.5501 33.4657 19.6045C33.4564 19.7131 33.4441 19.8676 33.4318 20.0543C33.4074 20.4261 33.3827 20.9326 33.3832 21.4618C33.3837 21.9838 33.4085 22.5616 33.4931 23.0635C33.5352 23.3136 33.5974 23.577 33.6951 23.818C33.7858 24.0413 33.9492 24.3528 34.2611 24.5781C35.0239 25.1292 35.8999 25.0526 36.6768 24.8406C37.4245 24.6366 38.3483 24.2314 39.4382 23.7533L39.5104 23.7217L40.1087 23.4601L40.1108 23.4592C40.8479 23.135 40.9457 23.1153 41.0234 23.1153C41.1012 23.1153 41.1993 23.1353 41.9379 23.4596L42.5344 23.7213L42.6089 23.7539C43.6988 24.2318 44.6223 24.6367 45.3695 24.8407C46.1457 25.0526 47.0221 25.1297 47.7848 24.579C48.2157 24.2675 48.4344 23.8232 48.5522 23.4372C48.6724 23.0435 48.7186 22.61 48.7299 22.1931C48.7527 21.3595 48.6386 20.4146 48.5272 19.6233C48.5118 19.5141 48.4896 19.3825 48.4725 19.2847C48.4637 19.2344 48.4558 19.1903 48.4501 19.1587L48.4432 19.1212L48.4408 19.1079L48.4405 19.1067L48.4387 19.097L48.4369 19.0883L48.4367 19.0874L48.4362 19.0843L48.4313 19.0586C48.4268 19.0343 48.4201 18.9967 48.4126 18.9485C48.3973 18.8513 48.379 18.7154 48.3669 18.5625C48.3402 18.2242 48.355 17.9277 48.4093 17.7636C48.4778 17.5569 48.6584 17.2814 48.8798 17.0145C48.982 16.8913 49.0782 16.7872 49.1484 16.7146C49.1832 16.6786 49.2108 16.651 49.2287 16.6335L49.2477 16.615L49.2501 16.6128L49.251 16.6119L49.2641 16.5996L49.7627 16.0926L49.7774 16.0763C50.6477 15.1075 51.2132 14.3218 51.5537 13.6948C51.724 13.381 51.8478 13.0891 51.9211 12.8202C51.9912 12.5627 52.0319 12.265 51.9684 11.9687L51.9584 11.9219L51.9436 11.8763C51.6631 11.0155 50.9336 10.5713 50.1735 10.286C49.4472 10.0133 48.4585 9.80053 47.2924 9.54957L46.5793 9.39582C45.869 9.2429 45.7244 9.19522 45.6518 9.15042C45.6455 9.14235 45.5999 9.09655 45.5085 8.98499C45.3967 8.84852 45.2603 8.66886 45.1157 8.46864C44.8241 8.06499 44.5308 7.62219 44.3731 7.35265C44.2273 7.10362 44.091 6.86668 43.9625 6.64338C43.5654 5.95335 43.2433 5.39357 42.9481 5.00945C42.7363 4.7338 42.4797 4.46494 42.1373 4.27365C41.7767 4.07218 41.4 4.00013 41.0234 4.00013ZM39.3739 8.31116L39.3904 8.28505L39.4053 8.25766L39.4077 8.25324L39.4189 8.2329C39.4292 8.21438 39.4449 8.18626 39.4656 8.14989C39.5069 8.07708 39.5676 7.97169 39.6437 7.84467C39.7968 7.58907 40.0074 7.25324 40.2425 6.92174C40.4824 6.58355 40.7255 6.28175 40.9408 6.07491C41.0183 6.00047 41.0795 5.95071 41.1234 5.91942C41.1211 5.91833 41.1186 5.92743 41.1139 5.92634C41.1045 5.92417 41.1683 5.92634 41.1139 5.92634C41.1109 5.92788 41.1193 5.92314 41.1139 5.92634C41.1139 5.92634 41.1406 5.90721 41.1234 5.91942C41.1246 5.91996 41.1125 5.9256 41.1139 5.92634C41.1266 5.93347 41.2053 5.96929 41.3356 6.13874C41.5473 6.41427 41.7762 6.81157 42.1397 7.4428C42.2799 7.68622 42.4402 7.96442 42.6272 8.28384C42.8259 8.62345 43.1564 9.1194 43.4693 9.55247C43.6269 9.77062 43.7879 9.98389 43.933 10.161C44.0507 10.3046 44.2341 10.5216 44.4242 10.6588C44.8838 10.9906 45.4408 11.1093 46.0118 11.2309L46.0125 11.2311C46.0546 11.24 46.0971 11.2491 46.1393 11.2582L46.7768 11.3956C48.0433 11.6683 48.8771 11.8507 49.4416 12.0626C49.7754 12.188 49.9179 12.2882 49.981 12.3558C49.9532 12.4512 49.8942 12.6024 49.778 12.8163C49.5336 13.2665 49.0751 13.9236 48.2737 14.8174L47.831 15.2676C47.8221 15.2761 47.8102 15.2876 47.7955 15.3019C47.7663 15.3306 47.7261 15.3707 47.6779 15.4206C47.5821 15.5199 47.4518 15.6607 47.3119 15.8293C47.0491 16.1461 46.6832 16.6424 46.5025 17.1879C46.3272 17.7169 46.342 18.3191 46.3727 18.7063C46.3893 18.9161 46.414 19.0996 46.4347 19.2312C46.445 19.2973 46.4545 19.3514 46.4617 19.3902C46.4653 19.4096 46.4683 19.4253 46.4706 19.4369L46.4724 19.4461L46.4733 19.4509L46.4794 19.4842C46.4846 19.5129 46.4918 19.5531 46.4998 19.5987C46.5162 19.6928 46.5341 19.7998 46.5451 19.8776C46.6561 20.6661 46.7489 21.4771 46.7307 22.1434C46.7216 22.4765 46.6854 22.7289 46.6322 22.9031C46.6006 23.0065 46.5722 23.0529 46.5622 23.0675C46.5197 23.09 46.3739 23.1292 45.9195 23.0052C45.3376 22.8463 44.5548 22.5062 43.369 21.9863L42.7733 21.725C42.7337 21.7077 42.6942 21.6902 42.6548 21.6728C42.1218 21.4374 41.5985 21.2062 41.0234 21.2062C40.4475 21.2062 39.924 21.4378 39.391 21.6736C39.3524 21.6907 39.3137 21.7078 39.2749 21.7248L39.2739 21.7253L38.6766 21.9864C37.4912 22.5062 36.7088 22.8463 36.1272 23.005C35.7938 23.096 35.6265 23.099 35.5441 23.0852C35.5195 23.013 35.4922 22.9062 35.4676 22.7602C35.4077 22.4046 35.3836 21.9429 35.3831 21.4601C35.3827 20.9845 35.405 20.5209 35.4278 20.1738C35.4392 20.001 35.4505 19.8588 35.459 19.7606C35.4632 19.7115 35.4667 19.6735 35.469 19.6483L35.4717 19.6203L35.4724 19.6139L35.4725 19.6125L35.5353 18.9986L35.537 18.9895C35.5426 18.9577 35.55 18.9138 35.558 18.8603C35.574 18.7541 35.5932 18.6059 35.6062 18.437C35.6294 18.1354 35.6455 17.6314 35.4981 17.1874C35.3802 16.8324 35.2398 16.5788 35.0329 16.3287C34.9453 16.2227 34.8493 16.122 34.7667 16.0354L34.7518 16.0198C34.6687 15.9326 34.5818 15.8414 34.4799 15.7278L34.0452 15.2442C33.1834 14.2844 32.6127 13.6447 32.2777 13.1378C32.0513 12.7952 32.0038 12.6175 32.0012 12.5247C32.0587 12.4815 32.1498 12.4237 32.2821 12.3551C32.5968 12.192 33.0246 12.0286 33.4836 11.8798C33.935 11.7334 34.3825 11.6119 34.7199 11.5266C34.8878 11.4842 35.0264 11.4512 35.1223 11.429C35.1702 11.4179 35.2072 11.4095 35.2318 11.404L35.259 11.398L35.2651 11.3967L35.2663 11.3964L35.2807 11.3933L35.2955 11.3897L35.2967 11.3894L35.299 11.3888L35.3054 11.3872L35.3258 11.382C35.3427 11.3777 35.3659 11.3716 35.3948 11.3638C35.4526 11.3482 35.5334 11.3256 35.6317 11.2962C35.8271 11.2376 36.0966 11.1503 36.3929 11.0349C36.9402 10.8217 37.7522 10.4486 38.272 9.87424C38.4897 9.63364 38.7783 9.21567 38.9805 8.9142C39.0893 8.7519 39.1872 8.60182 39.2578 8.4925C39.2932 8.43773 39.3219 8.3929 39.3419 8.36153L39.3652 8.32496L39.3732 8.31229L39.3739 8.31116ZM46.5772 23.0572C46.576 23.0584 46.5732 23.0609 46.5682 23.0641C46.5707 23.062 46.5735 23.0599 46.5772 23.0572ZM35.4796 23.0644C35.4759 23.0616 35.472 23.0587 35.468 23.0558L35.4688 23.0565C35.4703 23.0579 35.4736 23.0608 35.4796 23.0644Z" fill="white"/>
<path fill-rule="evenodd" clip-rule="evenodd" d="M71.0234 4.00013C70.6485 4.00013 70.3359 4.13751 70.1194 4.2646C69.8948 4.39643 69.6937 4.56436 69.522 4.72937C69.1784 5.05948 68.8544 5.4736 68.5865 5.85134C68.3138 6.23576 68.0759 6.61586 67.9074 6.8972C67.8227 7.03866 67.7545 7.15699 67.7069 7.2408C67.6831 7.28273 67.6645 7.31613 67.6515 7.33957L67.6465 7.34858L67.6336 7.36883C67.6153 7.39752 67.5886 7.43929 67.5554 7.49067C67.4889 7.59369 67.3972 7.7342 67.2961 7.88495C67.0784 8.20958 66.8659 8.50753 66.7585 8.62625C66.5707 8.83384 66.1479 9.06833 65.6373 9.26723C65.4047 9.35785 65.1895 9.42769 65.0325 9.47475C64.9545 9.49812 64.8922 9.51549 64.8508 9.52665C64.8303 9.53218 64.8149 9.53621 64.8055 9.53862L64.7765 9.54503C64.7468 9.55166 64.7043 9.56128 64.6506 9.57372C64.5432 9.59859 64.391 9.63484 64.2079 9.68112C63.8435 9.77326 63.3491 9.90709 62.8403 10.0721C62.339 10.2346 61.7882 10.4387 61.3277 10.6774C61.0979 10.7965 60.8603 10.9397 60.6556 11.1104C60.4622 11.2718 60.2184 11.5238 60.1032 11.876C59.826 12.726 60.1477 13.4929 60.5862 14.1564C61.0096 14.7971 61.6806 15.5443 62.4782 16.4326L62.9615 16.9703C63.0836 17.1064 63.188 17.2159 63.2706 17.3025L63.2874 17.3202C63.3775 17.4147 63.426 17.4667 63.4634 17.5119C63.5067 17.5643 63.5397 17.6079 63.5916 17.7641C63.6165 17.8391 63.632 18.0319 63.6116 18.2974C63.6028 18.412 63.5895 18.515 63.5784 18.589C63.5729 18.6256 63.5681 18.6541 63.5649 18.6722L63.5614 18.691L63.5612 18.6925L63.5609 18.6939L63.5529 18.7341L63.4818 19.4288L63.4814 19.4329L63.4805 19.4425L63.4771 19.4773C63.4743 19.5072 63.4704 19.5501 63.4657 19.6045C63.4564 19.7131 63.4441 19.8676 63.4318 20.0543C63.4074 20.4261 63.3827 20.9326 63.3832 21.4618C63.3837 21.9838 63.4085 22.5616 63.4931 23.0635C63.5352 23.3136 63.5974 23.577 63.6951 23.818C63.7858 24.0413 63.9492 24.3528 64.2611 24.5781C65.0239 25.1292 65.8999 25.0526 66.6768 24.8406C67.4245 24.6366 68.3483 24.2314 69.4382 23.7533L69.5104 23.7217L70.1087 23.4601L70.1108 23.4592C70.8479 23.135 70.9457 23.1153 71.0234 23.1153C71.1012 23.1153 71.1993 23.1353 71.9379 23.4596L72.5344 23.7213L72.6089 23.7539C73.6988 24.2318 74.6223 24.6367 75.3695 24.8407C76.1457 25.0526 77.0221 25.1297 77.7848 24.579C78.2157 24.2675 78.4344 23.8232 78.5522 23.4372C78.6724 23.0435 78.7186 22.61 78.7299 22.1931C78.7527 21.3595 78.6386 20.4146 78.5272 19.6233C78.5118 19.5141 78.4896 19.3825 78.4725 19.2847C78.4637 19.2344 78.4558 19.1903 78.4501 19.1587L78.4432 19.1212L78.4408 19.1079L78.4405 19.1067L78.4387 19.097L78.4369 19.0883L78.4367 19.0874L78.4362 19.0843L78.4313 19.0586C78.4268 19.0343 78.4201 18.9967 78.4126 18.9485C78.3973 18.8513 78.379 18.7154 78.3669 18.5625C78.3402 18.2242 78.355 17.9277 78.4093 17.7636C78.4778 17.5569 78.6584 17.2814 78.8798 17.0145C78.982 16.8913 79.0782 16.7872 79.1484 16.7146C79.1832 16.6786 79.2108 16.651 79.2287 16.6335L79.2477 16.615L79.2501 16.6128L79.251 16.6119L79.2641 16.5996L79.7627 16.0926L79.7774 16.0763C80.6477 15.1075 81.2132 14.3218 81.5537 13.6948C81.724 13.381 81.8478 13.0891 81.9211 12.8202C81.9912 12.5627 82.0319 12.265 81.9684 11.9687L81.9584 11.9219L81.9436 11.8763C81.6631 11.0155 80.9336 10.5713 80.1735 10.286C79.4472 10.0133 78.4585 9.80053 77.2924 9.54957L76.5793 9.39582C75.869 9.2429 75.7244 9.19522 75.6518 9.15042C75.6455 9.14235 75.5999 9.09655 75.5085 8.98499C75.3967 8.84852 75.2603 8.66886 75.1157 8.46864C74.8241 8.06499 74.5308 7.62219 74.3731 7.35265C74.2273 7.10362 74.091 6.86668 73.9625 6.64338C73.5654 5.95335 73.2433 5.39357 72.9481 5.00945C72.7363 4.7338 72.4797 4.46494 72.1373 4.27365C71.7767 4.07218 71.4 4.00013 71.0234 4.00013ZM69.3739 8.31116L69.3904 8.28505L69.4053 8.25766L69.4077 8.25324L69.4189 8.2329C69.4292 8.21438 69.4449 8.18626 69.4656 8.14989C69.5069 8.07708 69.5676 7.97169 69.6437 7.84467C69.7968 7.58907 70.0074 7.25324 70.2425 6.92174C70.4824 6.58355 70.7255 6.28175 70.9408 6.07491C71.0183 6.00047 71.0795 5.95071 71.1234 5.91942C71.1211 5.91833 71.1186 5.92743 71.1139 5.92634C71.1045 5.92417 71.1683 5.92634 71.1139 5.92634C71.1109 5.92788 71.1193 5.92314 71.1139 5.92634C71.1139 5.92634 71.1406 5.90721 71.1234 5.91942C71.1246 5.91996 71.1125 5.9256 71.1139 5.92634C71.1266 5.93347 71.2053 5.96929 71.3356 6.13874C71.5473 6.41427 71.7762 6.81157 72.1397 7.4428C72.2799 7.68622 72.4402 7.96442 72.6272 8.28384C72.8259 8.62345 73.1564 9.1194 73.4693 9.55247C73.6269 9.77062 73.7879 9.98389 73.933 10.161C74.0507 10.3046 74.2341 10.5216 74.4242 10.6588C74.8838 10.9906 75.4408 11.1093 76.0118 11.2309L76.0125 11.2311C76.0546 11.24 76.0971 11.2491 76.1393 11.2582L76.7768 11.3956C78.0433 11.6683 78.8771 11.8507 79.4416 12.0626C79.7754 12.188 79.9179 12.2882 79.981 12.3558C79.9532 12.4512 79.8942 12.6024 79.778 12.8163C79.5336 13.2665 79.0751 13.9236 78.2737 14.8174L77.831 15.2676C77.8221 15.2761 77.8102 15.2876 77.7955 15.3019C77.7663 15.3306 77.7261 15.3707 77.6779 15.4206C77.5821 15.5199 77.4518 15.6607 77.3119 15.8293C77.0491 16.1461 76.6832 16.6424 76.5025 17.1879C76.3272 17.7169 76.342 18.3191 76.3727 18.7063C76.3893 18.9161 76.414 19.0996 76.4347 19.2312C76.445 19.2973 76.4545 19.3514 76.4617 19.3902C76.4653 19.4096 76.4683 19.4253 76.4706 19.4369L76.4724 19.4461L76.4733 19.4509L76.4794 19.4842C76.4846 19.5129 76.4918 19.5531 76.4998 19.5987C76.5162 19.6928 76.5341 19.7998 76.5451 19.8776C76.6561 20.6661 76.7489 21.4771 76.7307 22.1434C76.7216 22.4765 76.6854 22.7289 76.6322 22.9031C76.6006 23.0065 76.5722 23.0529 76.5622 23.0675C76.5197 23.09 76.3739 23.1292 75.9195 23.0052C75.3376 22.8463 74.5548 22.5062 73.369 21.9863L72.7733 21.725C72.7337 21.7077 72.6942 21.6902 72.6548 21.6728C72.1218 21.4374 71.5985 21.2062 71.0234 21.2062C70.4475 21.2062 69.924 21.4378 69.391 21.6736C69.3524 21.6907 69.3137 21.7078 69.2749 21.7248L69.2739 21.7253L68.6766 21.9864C67.4912 22.5062 66.7088 22.8463 66.1272 23.005C65.7938 23.096 65.6265 23.099 65.5441 23.0852C65.5195 23.013 65.4922 22.9062 65.4676 22.7602C65.4077 22.4046 65.3836 21.9429 65.3831 21.4601C65.3827 20.9845 65.405 20.5209 65.4278 20.1738C65.4392 20.001 65.4505 19.8588 65.459 19.7606C65.4632 19.7115 65.4667 19.6735 65.469 19.6483L65.4717 19.6203L65.4724 19.6139L65.4725 19.6125L65.5353 18.9986L65.537 18.9895C65.5426 18.9577 65.55 18.9138 65.558 18.8603C65.574 18.7541 65.5932 18.6059 65.6062 18.437C65.6294 18.1354 65.6455 17.6314 65.4981 17.1874C65.3802 16.8324 65.2398 16.5788 65.0329 16.3287C64.9453 16.2227 64.8493 16.122 64.7667 16.0354L64.7518 16.0198C64.6687 15.9326 64.5818 15.8414 64.4799 15.7278L64.0452 15.2442C63.1834 14.2844 62.6127 13.6447 62.2777 13.1378C62.0513 12.7952 62.0038 12.6175 62.0012 12.5247C62.0587 12.4815 62.1498 12.4237 62.2821 12.3551C62.5968 12.192 63.0246 12.0286 63.4836 11.8798C63.935 11.7334 64.3825 11.6119 64.7199 11.5266C64.8878 11.4842 65.0264 11.4512 65.1223 11.429C65.1702 11.4179 65.2072 11.4095 65.2318 11.404L65.259 11.398L65.2651 11.3967L65.2663 11.3964L65.2807 11.3933L65.2955 11.3897L65.2967 11.3894L65.299 11.3888L65.3054 11.3872L65.3258 11.382C65.3427 11.3777 65.3659 11.3716 65.3948 11.3638C65.4526 11.3482 65.5334 11.3256 65.6317 11.2962C65.8271 11.2376 66.0966 11.1503 66.3929 11.0349C66.9402 10.8217 67.7522 10.4486 68.272 9.87424C68.4897 9.63364 68.7783 9.21567 68.9805 8.9142C69.0893 8.7519 69.1872 8.60182 69.2578 8.4925C69.2932 8.43773 69.3219 8.3929 69.3419 8.36153L69.3652 8.32496L69.3732 8.31229L69.3739 8.31116ZM76.5772 23.0572C76.576 23.0584 76.5732 23.0609 76.5682 23.0641C76.5707 23.062 76.5735 23.0599 76.5772 23.0572ZM65.4796 23.0644C65.4759 23.0616 65.472 23.0587 65.468 23.0558L65.4688 23.0565C65.4703 23.0579 65.4736 23.0608 65.4796 23.0644Z" fill="white"/>
<path fill-rule="evenodd" clip-rule="evenodd" d="M101.023 4.00013C100.648 4.00013 100.336 4.13751 100.119 4.2646C99.8948 4.39643 99.6937 4.56436 99.522 4.72937C99.1784 5.05948 98.8544 5.4736 98.5865 5.85134C98.3138 6.23576 98.0759 6.61586 97.9074 6.8972C97.8227 7.03866 97.7545 7.15699 97.7069 7.2408C97.6831 7.28273 97.6645 7.31613 97.6515 7.33957L97.6465 7.34858L97.6336 7.36883C97.6153 7.39752 97.5886 7.43929 97.5554 7.49067C97.4889 7.59369 97.3972 7.7342 97.2961 7.88495C97.0784 8.20958 96.8659 8.50753 96.7585 8.62625C96.5707 8.83384 96.1479 9.06833 95.6373 9.26723C95.4047 9.35785 95.1895 9.42769 95.0325 9.47475C94.9545 9.49812 94.8922 9.51549 94.8508 9.52665C94.8303 9.53218 94.8149 9.53621 94.8055 9.53862L94.7765 9.54503C94.7468 9.55166 94.7043 9.56128 94.6506 9.57372C94.5432 9.59859 94.391 9.63484 94.2079 9.68112C93.8435 9.77326 93.3491 9.90709 92.8403 10.0721C92.339 10.2346 91.7882 10.4387 91.3277 10.6774C91.0979 10.7965 90.8603 10.9397 90.6556 11.1104C90.4622 11.2718 90.2184 11.5238 90.1032 11.876C89.826 12.726 90.1477 13.4929 90.5862 14.1564C91.0096 14.7971 91.6806 15.5443 92.4782 16.4326L92.9615 16.9703C93.0836 17.1064 93.188 17.2159 93.2706 17.3025L93.2874 17.3202C93.3775 17.4147 93.426 17.4667 93.4634 17.5119C93.5067 17.5643 93.5397 17.6079 93.5916 17.7641C93.6165 17.8391 93.632 18.0319 93.6116 18.2974C93.6028 18.412 93.5895 18.515 93.5784 18.589C93.5729 18.6256 93.5681 18.6541 93.5649 18.6722L93.5614 18.691L93.5612 18.6925L93.5609 18.6939L93.5529 18.7341L93.4818 19.4288L93.4814 19.4329L93.4805 19.4425L93.4771 19.4773C93.4743 19.5072 93.4704 19.5501 93.4657 19.6045C93.4564 19.7131 93.4441 19.8676 93.4318 20.0543C93.4074 20.4261 93.3827 20.9326 93.3832 21.4618C93.3837 21.9838 93.4085 22.5616 93.4931 23.0635C93.5352 23.3136 93.5974 23.577 93.6951 23.818C93.7858 24.0413 93.9492 24.3528 94.2611 24.5781C95.0239 25.1292 95.8999 25.0526 96.6768 24.8406C97.4245 24.6366 98.3483 24.2314 99.4382 23.7533L99.5104 23.7217L100.109 23.4601L100.111 23.4592C100.848 23.135 100.946 23.1153 101.023 23.1153C101.101 23.1153 101.199 23.1353 101.938 23.4596L102.534 23.7213L102.609 23.7539C103.699 24.2318 104.622 24.6367 105.369 24.8407C106.146 25.0526 107.022 25.1297 107.785 24.579C108.216 24.2675 108.434 23.8232 108.552 23.4372C108.672 23.0435 108.719 22.61 108.73 22.1931C108.753 21.3595 108.639 20.4146 108.527 19.6233C108.512 19.5141 108.49 19.3825 108.472 19.2847C108.464 19.2344 108.456 19.1903 108.45 19.1587L108.443 19.1212L108.441 19.1079L108.441 19.1067L108.439 19.097L108.437 19.0883L108.437 19.0874L108.436 19.0843L108.431 19.0586C108.427 19.0343 108.42 18.9967 108.413 18.9485C108.397 18.8513 108.379 18.7154 108.367 18.5625C108.34 18.2242 108.355 17.9277 108.409 17.7636C108.478 17.5569 108.658 17.2814 108.88 17.0145C108.982 16.8913 109.078 16.7872 109.148 16.7146C109.183 16.6786 109.211 16.651 109.229 16.6335L109.248 16.615L109.25 16.6128L109.251 16.6119L109.264 16.5996L109.763 16.0926L109.777 16.0763C110.648 15.1075 111.213 14.3218 111.554 13.6948C111.724 13.381 111.848 13.0891 111.921 12.8202C111.991 12.5627 112.032 12.265 111.968 11.9687L111.958 11.9219L111.944 11.8763C111.663 11.0155 110.934 10.5713 110.174 10.286C109.447 10.0133 108.458 9.80053 107.292 9.54957L106.579 9.39582C105.869 9.2429 105.724 9.19522 105.652 9.15042C105.645 9.14235 105.6 9.09655 105.508 8.98499C105.397 8.84852 105.26 8.66886 105.116 8.46864C104.824 8.06499 104.531 7.62219 104.373 7.35265C104.227 7.10362 104.091 6.86668 103.962 6.64338C103.565 5.95335 103.243 5.39357 102.948 5.00945C102.736 4.7338 102.48 4.46494 102.137 4.27365C101.777 4.07218 101.4 4.00013 101.023 4.00013ZM99.3739 8.31116L99.3904 8.28505L99.4053 8.25766L99.4077 8.25324L99.4189 8.2329C99.4292 8.21438 99.4449 8.18626 99.4656 8.14989C99.5069 8.07708 99.5676 7.97169 99.6437 7.84467C99.7968 7.58907 100.007 7.25324 100.243 6.92174C100.482 6.58355 100.726 6.28175 100.941 6.07491C101.018 6.00047 101.079 5.95071 101.123 5.91942C101.121 5.91833 101.119 5.92743 101.114 5.92634C101.105 5.92417 101.168 5.92634 101.114 5.92634C101.111 5.92788 101.119 5.92314 101.114 5.92634C101.114 5.92634 101.141 5.90721 101.123 5.91942C101.125 5.91996 101.113 5.9256 101.114 5.92634C101.127 5.93347 101.205 5.96929 101.336 6.13874C101.547 6.41427 101.776 6.81157 102.14 7.4428C102.28 7.68622 102.44 7.96442 102.627 8.28384C102.826 8.62345 103.156 9.1194 103.469 9.55247C103.627 9.77062 103.788 9.98389 103.933 10.161C104.051 10.3046 104.234 10.5216 104.424 10.6588C104.884 10.9906 105.441 11.1093 106.012 11.2309L106.013 11.2311C106.055 11.24 106.097 11.2491 106.139 11.2582L106.777 11.3956C108.043 11.6683 108.877 11.8507 109.442 12.0626C109.775 12.188 109.918 12.2882 109.981 12.3558C109.953 12.4512 109.894 12.6024 109.778 12.8163C109.534 13.2665 109.075 13.9236 108.274 14.8174L107.831 15.2676C107.822 15.2761 107.81 15.2876 107.796 15.3019C107.766 15.3306 107.726 15.3707 107.678 15.4206C107.582 15.5199 107.452 15.6607 107.312 15.8293C107.049 16.1461 106.683 16.6424 106.502 17.1879C106.327 17.7169 106.342 18.3191 106.373 18.7063C106.389 18.9161 106.414 19.0996 106.435 19.2312C106.445 19.2973 106.455 19.3514 106.462 19.3902C106.465 19.4096 106.468 19.4253 106.471 19.4369L106.472 19.4461L106.473 19.4509L106.479 19.4842C106.485 19.5129 106.492 19.5531 106.5 19.5987C106.516 19.6928 106.534 19.7998 106.545 19.8776C106.656 20.6661 106.749 21.4771 106.731 22.1434C106.722 22.4765 106.685 22.7289 106.632 22.9031C106.601 23.0065 106.572 23.0529 106.562 23.0675C106.52 23.09 106.374 23.1292 105.919 23.0052C105.338 22.8463 104.555 22.5062 103.369 21.9863L102.773 21.725C102.734 21.7077 102.694 21.6902 102.655 21.6728C102.122 21.4374 101.598 21.2062 101.023 21.2062C100.448 21.2062 99.924 21.4378 99.391 21.6736C99.3524 21.6907 99.3137 21.7078 99.2749 21.7248L99.2739 21.7253L98.6766 21.9864C97.4912 22.5062 96.7088 22.8463 96.1272 23.005C95.7938 23.096 95.6265 23.099 95.5441 23.0852C95.5195 23.013 95.4922 22.9062 95.4676 22.7602C95.4077 22.4046 95.3836 21.9429 95.3831 21.4601C95.3827 20.9845 95.405 20.5209 95.4278 20.1738C95.4392 20.001 95.4505 19.8588 95.459 19.7606C95.4632 19.7115 95.4667 19.6735 95.469 19.6483L95.4717 19.6203L95.4724 19.6139L95.4725 19.6125L95.5353 18.9986L95.537 18.9895C95.5426 18.9577 95.55 18.9138 95.558 18.8603C95.574 18.7541 95.5932 18.6059 95.6062 18.437C95.6294 18.1354 95.6455 17.6314 95.4981 17.1874C95.3802 16.8324 95.2398 16.5788 95.0329 16.3287C94.9453 16.2227 94.8493 16.122 94.7667 16.0354L94.7518 16.0198C94.6687 15.9326 94.5818 15.8414 94.4799 15.7278L94.0452 15.2442C93.1834 14.2844 92.6127 13.6447 92.2777 13.1378C92.0513 12.7952 92.0038 12.6175 92.0012 12.5247C92.0587 12.4815 92.1498 12.4237 92.2821 12.3551C92.5968 12.192 93.0246 12.0286 93.4836 11.8798C93.935 11.7334 94.3825 11.6119 94.7199 11.5266C94.8878 11.4842 95.0264 11.4512 95.1223 11.429C95.1702 11.4179 95.2072 11.4095 95.2318 11.404L95.259 11.398L95.2651 11.3967L95.2663 11.3964L95.2807 11.3933L95.2955 11.3897L95.2967 11.3894L95.299 11.3888L95.3054 11.3872L95.3258 11.382C95.3427 11.3777 95.3659 11.3716 95.3948 11.3638C95.4526 11.3482 95.5334 11.3256 95.6317 11.2962C95.8271 11.2376 96.0966 11.1503 96.3929 11.0349C96.9402 10.8217 97.7522 10.4486 98.272 9.87424C98.4897 9.63364 98.7783 9.21567 98.9805 8.9142C99.0893 8.7519 99.1872 8.60182 99.2578 8.4925C99.2932 8.43773 99.3219 8.3929 99.3419 8.36153L99.3652 8.32496L99.3732 8.31229L99.3739 8.31116ZM106.577 23.0572C106.576 23.0584 106.573 23.0609 106.568 23.0641C106.571 23.062 106.573 23.0599 106.577 23.0572ZM95.4796 23.0644C95.4759 23.0616 95.472 23.0587 95.468 23.0558L95.4688 23.0565C95.4703 23.0579 95.4736 23.0608 95.4796 23.0644Z" fill="white"/>
<path fill-rule="evenodd" clip-rule="evenodd" d="M131.023 4.00013C130.648 4.00013 130.336 4.13751 130.119 4.2646C129.895 4.39643 129.694 4.56436 129.522 4.72937C129.178 5.05948 128.854 5.4736 128.586 5.85134C128.314 6.23576 128.076 6.61586 127.907 6.8972C127.823 7.03866 127.754 7.15699 127.707 7.2408C127.683 7.28273 127.664 7.31613 127.651 7.33957L127.646 7.34858L127.634 7.36883C127.615 7.39752 127.589 7.43929 127.555 7.49067C127.489 7.59369 127.397 7.7342 127.296 7.88495C127.078 8.20958 126.866 8.50753 126.759 8.62625C126.571 8.83384 126.148 9.06833 125.637 9.26723C125.405 9.35785 125.19 9.42769 125.033 9.47475C124.955 9.49812 124.892 9.51549 124.851 9.52665C124.83 9.53218 124.815 9.53621 124.806 9.53862L124.777 9.54503C124.747 9.55166 124.704 9.56128 124.651 9.57372C124.543 9.59859 124.391 9.63484 124.208 9.68112C123.843 9.77326 123.349 9.90709 122.84 10.0721C122.339 10.2346 121.788 10.4387 121.328 10.6774C121.098 10.7965 120.86 10.9397 120.656 11.1104C120.462 11.2718 120.218 11.5238 120.103 11.876C119.826 12.726 120.148 13.4929 120.586 14.1564C121.01 14.7971 121.681 15.5443 122.478 16.4326L122.962 16.9703C123.084 17.1064 123.188 17.2159 123.271 17.3025L123.287 17.3202C123.378 17.4147 123.426 17.4667 123.463 17.5119C123.507 17.5643 123.54 17.6079 123.592 17.7641C123.616 17.8391 123.632 18.0319 123.612 18.2974C123.603 18.412 123.59 18.515 123.578 18.589C123.573 18.6256 123.568 18.6541 123.565 18.6722L123.561 18.691L123.561 18.6925L123.561 18.6939L123.553 18.7341L123.482 19.4288L123.481 19.4329L123.48 19.4425L123.477 19.4773C123.474 19.5072 123.47 19.5501 123.466 19.6045C123.456 19.7131 123.444 19.8676 123.432 20.0543C123.407 20.4261 123.383 20.9326 123.383 21.4618C123.384 21.9838 123.408 22.5616 123.493 23.0635C123.535 23.3136 123.597 23.577 123.695 23.818C123.786 24.0413 123.949 24.3528 124.261 24.5781C125.024 25.1292 125.9 25.0526 126.677 24.8406C127.425 24.6366 128.348 24.2314 129.438 23.7533L129.51 23.7217L130.109 23.4601L130.111 23.4592C130.848 23.135 130.946 23.1153 131.023 23.1153C131.101 23.1153 131.199 23.1353 131.938 23.4596L132.534 23.7213L132.609 23.7539C133.699 24.2318 134.622 24.6367 135.369 24.8407C136.146 25.0526 137.022 25.1297 137.785 24.579C138.216 24.2675 138.434 23.8232 138.552 23.4372C138.672 23.0435 138.719 22.61 138.73 22.1931C138.753 21.3595 138.639 20.4146 138.527 19.6233C138.512 19.5141 138.49 19.3825 138.472 19.2847C138.464 19.2344 138.456 19.1903 138.45 19.1587L138.443 19.1212L138.441 19.1079L138.441 19.1067L138.439 19.097L138.437 19.0883L138.437 19.0874L138.436 19.0843L138.431 19.0586C138.427 19.0343 138.42 18.9967 138.413 18.9485C138.397 18.8513 138.379 18.7154 138.367 18.5625C138.34 18.2242 138.355 17.9277 138.409 17.7636C138.478 17.5569 138.658 17.2814 138.88 17.0145C138.982 16.8913 139.078 16.7872 139.148 16.7146C139.183 16.6786 139.211 16.651 139.229 16.6335L139.248 16.615L139.25 16.6128L139.251 16.6119L139.264 16.5996L139.763 16.0926L139.777 16.0763C140.648 15.1075 141.213 14.3218 141.554 13.6948C141.724 13.381 141.848 13.0891 141.921 12.8202C141.991 12.5627 142.032 12.265 141.968 11.9687L141.958 11.9219L141.944 11.8763C141.663 11.0155 140.934 10.5713 140.174 10.286C139.447 10.0133 138.458 9.80053 137.292 9.54957L136.579 9.39582C135.869 9.2429 135.724 9.19522 135.652 9.15042C135.645 9.14235 135.6 9.09655 135.508 8.98499C135.397 8.84852 135.26 8.66886 135.116 8.46864C134.824 8.06499 134.531 7.62219 134.373 7.35265C134.227 7.10362 134.091 6.86668 133.962 6.64338C133.565 5.95335 133.243 5.39357 132.948 5.00945C132.736 4.7338 132.48 4.46494 132.137 4.27365C131.777 4.07218 131.4 4.00013 131.023 4.00013ZM129.374 8.31116L129.39 8.28505L129.405 8.25766L129.408 8.25324L129.419 8.2329C129.429 8.21438 129.445 8.18626 129.466 8.14989C129.507 8.07708 129.568 7.97169 129.644 7.84467C129.797 7.58907 130.007 7.25324 130.243 6.92174C130.482 6.58355 130.726 6.28175 130.941 6.07491C131.018 6.00047 131.079 5.95071 131.123 5.91942C131.121 5.91833 131.119 5.92743 131.114 5.92634C131.105 5.92417 131.168 5.92634 131.114 5.92634C131.111 5.92788 131.119 5.92314 131.114 5.92634C131.114 5.92634 131.141 5.90721 131.123 5.91942C131.125 5.91996 131.113 5.9256 131.114 5.92634C131.127 5.93347 131.205 5.96929 131.336 6.13874C131.547 6.41427 131.776 6.81157 132.14 7.4428C132.28 7.68622 132.44 7.96442 132.627 8.28384C132.826 8.62345 133.156 9.1194 133.469 9.55247C133.627 9.77062 133.788 9.98389 133.933 10.161C134.051 10.3046 134.234 10.5216 134.424 10.6588C134.884 10.9906 135.441 11.1093 136.012 11.2309L136.013 11.2311C136.055 11.24 136.097 11.2491 136.139 11.2582L136.777 11.3956C138.043 11.6683 138.877 11.8507 139.442 12.0626C139.775 12.188 139.918 12.2882 139.981 12.3558C139.953 12.4512 139.894 12.6024 139.778 12.8163C139.534 13.2665 139.075 13.9236 138.274 14.8174L137.831 15.2676C137.822 15.2761 137.81 15.2876 137.796 15.3019C137.766 15.3306 137.726 15.3707 137.678 15.4206C137.582 15.5199 137.452 15.6607 137.312 15.8293C137.049 16.1461 136.683 16.6424 136.502 17.1879C136.327 17.7169 136.342 18.3191 136.373 18.7063C136.389 18.9161 136.414 19.0996 136.435 19.2312C136.445 19.2973 136.455 19.3514 136.462 19.3902C136.465 19.4096 136.468 19.4253 136.471 19.4369L136.472 19.4461L136.473 19.4509L136.479 19.4842C136.485 19.5129 136.492 19.5531 136.5 19.5987C136.516 19.6928 136.534 19.7998 136.545 19.8776C136.656 20.6661 136.749 21.4771 136.731 22.1434C136.722 22.4765 136.685 22.7289 136.632 22.9031C136.601 23.0065 136.572 23.0529 136.562 23.0675C136.52 23.09 136.374 23.1292 135.919 23.0052C135.338 22.8463 134.555 22.5062 133.369 21.9863L132.773 21.725C132.734 21.7077 132.694 21.6902 132.655 21.6728C132.122 21.4374 131.598 21.2062 131.023 21.2062C130.448 21.2062 129.924 21.4378 129.391 21.6736C129.352 21.6907 129.314 21.7078 129.275 21.7248L129.274 21.7253L128.677 21.9864C127.491 22.5062 126.709 22.8463 126.127 23.005C125.794 23.096 125.626 23.099 125.544 23.0852C125.519 23.013 125.492 22.9062 125.468 22.7602C125.408 22.4046 125.384 21.9429 125.383 21.4601C125.383 20.9845 125.405 20.5209 125.428 20.1738C125.439 20.001 125.451 19.8588 125.459 19.7606C125.463 19.7115 125.467 19.6735 125.469 19.6483L125.472 19.6203L125.472 19.6139L125.472 19.6125L125.535 18.9986L125.537 18.9895C125.543 18.9577 125.55 18.9138 125.558 18.8603C125.574 18.7541 125.593 18.6059 125.606 18.437C125.629 18.1354 125.645 17.6314 125.498 17.1874C125.38 16.8324 125.24 16.5788 125.033 16.3287C124.945 16.2227 124.849 16.122 124.767 16.0354L124.752 16.0198C124.669 15.9326 124.582 15.8414 124.48 15.7278L124.045 15.2442C123.183 14.2844 122.613 13.6447 122.278 13.1378C122.051 12.7952 122.004 12.6175 122.001 12.5247C122.059 12.4815 122.15 12.4237 122.282 12.3551C122.597 12.192 123.025 12.0286 123.484 11.8798C123.935 11.7334 124.383 11.6119 124.72 11.5266C124.888 11.4842 125.026 11.4512 125.122 11.429C125.17 11.4179 125.207 11.4095 125.232 11.404L125.259 11.398L125.265 11.3967L125.266 11.3964L125.281 11.3933L125.295 11.3897L125.297 11.3894L125.299 11.3888L125.305 11.3872L125.326 11.382C125.343 11.3777 125.366 11.3716 125.395 11.3638C125.453 11.3482 125.533 11.3256 125.632 11.2962C125.827 11.2376 126.097 11.1503 126.393 11.0349C126.94 10.8217 127.752 10.4486 128.272 9.87424C128.49 9.63364 128.778 9.21567 128.981 8.9142C129.089 8.7519 129.187 8.60182 129.258 8.4925C129.293 8.43773 129.322 8.3929 129.342 8.36153L129.365 8.32496L129.373 8.31229L129.374 8.31116ZM136.577 23.0572C136.576 23.0584 136.573 23.0609 136.568 23.0641C136.571 23.062 136.573 23.0599 136.577 23.0572ZM125.48 23.0644C125.476 23.0616 125.472 23.0587 125.468 23.0558L125.469 23.0565C125.47 23.0579 125.474 23.0608 125.48 23.0644Z" fill="white"/>
</svg>
